M48
;DRILL file {KiCad 4.0.7} date 04/25/18 19:10:22
;FORMAT={-:-/ absolute / inch / decimal}
FMAT,2
INCH,TZ
T1C0.010
T2C0.020
T3C0.022
T4C0.030
T5C0.039
T6C0.040
T7C0.049
T8C0.120
T9C0.039
%
G90
G05
M72
T1
X4.65Y-3.21
X4.71Y-3.56
X4.8975Y-3.915
X4.97Y-3.785
X5.0217Y-3.2079
X5.0333Y-3.7403
X5.075Y-3.435
X5.081Y-4.6219
X5.2498Y-3.7109
X5.2715Y-3.6799
X5.2774Y-3.6201
X5.3178Y-3.8626
X5.3464Y-3.8976
X5.575Y-3.825
X5.6392Y-3.978
X5.6706Y-3.5275
X5.795Y-3.3781
X5.8175Y-3.74
X5.8475Y-3.825
X5.85Y-3.655
X5.915Y-4.0325
X6.1525Y-3.7925
X6.1886Y-4.1792
X6.2025Y-4.5275
X6.205Y-3.875
X6.2225Y-3.99
X6.2275Y-3.8239
X6.485Y-3.6825
X6.535Y-4.305
X6.575Y-3.52
X6.7795Y-4.315
T2
X6.505Y-4.45
X6.5579Y-4.3971
T3
X4.5103Y-3.3963
X4.5103Y-3.5537
T4
X5.108Y-4.875
X5.208Y-4.875
X5.308Y-4.875
T5
X5.8428Y-4.2401
X6.875Y-3.775
X6.875Y-3.875
X6.875Y-3.975
X6.975Y-3.775
X6.975Y-3.875
X6.975Y-3.975
X6.99Y-4.14
X6.99Y-4.24
X6.99Y-4.34
X6.99Y-4.44
T6
X5.11Y-2.975
X5.21Y-2.975
X5.31Y-2.975
X5.41Y-2.975
X5.47Y-4.875
X5.51Y-2.975
X5.57Y-4.875
X5.61Y-2.975
X5.67Y-4.875
X5.71Y-2.975
X5.77Y-4.875
X5.81Y-2.975
X5.87Y-4.875
X5.91Y-2.975
X5.97Y-4.875
X6.01Y-2.975
X6.07Y-4.875
X6.17Y-2.975
X6.17Y-4.875
X6.27Y-2.975
X6.37Y-2.975
X6.37Y-4.875
X6.47Y-2.975
X6.47Y-4.875
X6.57Y-2.975
X6.57Y-4.875
X6.67Y-2.975
X6.67Y-4.875
X6.77Y-2.975
X6.77Y-4.875
X6.87Y-2.975
X6.87Y-4.875
T7
X6.0502Y-4.4475
T8
X4.92Y-4.875
X4.97Y-2.975
X6.97Y-3.575
X6.97Y-4.675
T9
X4.52Y-3.8509
X4.52Y-4.1651
T5
X4.5988Y-4.6356G85X4.5988Y-4.7144
G05
X4.6775Y-4.86G85X4.7563Y-4.86
G05
X4.835Y-4.6356G85X4.835Y-4.7144
G05
T0
M30
