G04 #@! TF.FileFunction,Soldermask,Top*
%FSLAX46Y46*%
G04 Gerber Fmt 4.6, Leading zero omitted, Abs format (unit mm)*
G04 Created by KiCad (PCBNEW 4.0.7) date 04/26/18 08:03:10*
%MOMM*%
%LPD*%
G01*
G04 APERTURE LIST*
%ADD10C,0.100000*%
%ADD11R,3.500000X3.500000*%
%ADD12R,3.800000X2.000000*%
%ADD13R,1.500000X2.000000*%
%ADD14R,0.800000X1.300000*%
%ADD15R,0.500000X0.500000*%
%ADD16R,0.900000X0.800000*%
%ADD17R,1.200000X1.200000*%
%ADD18R,0.900000X0.500000*%
%ADD19C,1.000000*%
%ADD20C,1.250000*%
%ADD21R,2.400000X2.000000*%
%ADD22R,1.700000X1.700000*%
%ADD23O,1.700000X1.700000*%
%ADD24R,2.200000X1.200000*%
%ADD25R,1.400000X1.600000*%
%ADD26R,1.400000X1.200000*%
%ADD27R,1.600000X0.700000*%
%ADD28C,4.064000*%
%ADD29O,1.727200X2.032000*%
%ADD30C,0.550000*%
%ADD31R,1.900000X1.900000*%
%ADD32R,1.350000X0.400000*%
%ADD33R,1.000000X1.250000*%
%ADD34R,0.800000X0.750000*%
%ADD35R,0.750000X0.800000*%
%ADD36R,1.000000X1.000000*%
%ADD37C,1.524000*%
%ADD38R,0.500000X0.900000*%
%ADD39R,0.700000X1.300000*%
G04 APERTURE END LIST*
D10*
D11*
X122809000Y-118745000D03*
X116809000Y-118745000D03*
X119809000Y-123445000D03*
D10*
G36*
X167281334Y-96258555D02*
X167670243Y-96647464D01*
X166538872Y-97778835D01*
X166149963Y-97389926D01*
X167281334Y-96258555D01*
X167281334Y-96258555D01*
G37*
G36*
X166715648Y-95692870D02*
X167104557Y-96081779D01*
X165973186Y-97213150D01*
X165584277Y-96824241D01*
X166715648Y-95692870D01*
X166715648Y-95692870D01*
G37*
G36*
X166149963Y-95127184D02*
X166538872Y-95516093D01*
X165407501Y-96647464D01*
X165018592Y-96258555D01*
X166149963Y-95127184D01*
X166149963Y-95127184D01*
G37*
G36*
X165584278Y-94561499D02*
X165973187Y-94950408D01*
X164841816Y-96081779D01*
X164452907Y-95692870D01*
X165584278Y-94561499D01*
X165584278Y-94561499D01*
G37*
G36*
X165018592Y-93995813D02*
X165407501Y-94384722D01*
X164276130Y-95516093D01*
X163887221Y-95127184D01*
X165018592Y-93995813D01*
X165018592Y-93995813D01*
G37*
G36*
X164452907Y-93430128D02*
X164841816Y-93819037D01*
X163710445Y-94950408D01*
X163321536Y-94561499D01*
X164452907Y-93430128D01*
X164452907Y-93430128D01*
G37*
G36*
X163887221Y-92864443D02*
X164276130Y-93253352D01*
X163144759Y-94384723D01*
X162755850Y-93995814D01*
X163887221Y-92864443D01*
X163887221Y-92864443D01*
G37*
G36*
X163321536Y-92298757D02*
X163710445Y-92687666D01*
X162579074Y-93819037D01*
X162190165Y-93430128D01*
X163321536Y-92298757D01*
X163321536Y-92298757D01*
G37*
G36*
X160139555Y-92687666D02*
X160528464Y-92298757D01*
X161659835Y-93430128D01*
X161270926Y-93819037D01*
X160139555Y-92687666D01*
X160139555Y-92687666D01*
G37*
G36*
X159573870Y-93253352D02*
X159962779Y-92864443D01*
X161094150Y-93995814D01*
X160705241Y-94384723D01*
X159573870Y-93253352D01*
X159573870Y-93253352D01*
G37*
G36*
X159008184Y-93819037D02*
X159397093Y-93430128D01*
X160528464Y-94561499D01*
X160139555Y-94950408D01*
X159008184Y-93819037D01*
X159008184Y-93819037D01*
G37*
G36*
X158442499Y-94384722D02*
X158831408Y-93995813D01*
X159962779Y-95127184D01*
X159573870Y-95516093D01*
X158442499Y-94384722D01*
X158442499Y-94384722D01*
G37*
G36*
X157876813Y-94950408D02*
X158265722Y-94561499D01*
X159397093Y-95692870D01*
X159008184Y-96081779D01*
X157876813Y-94950408D01*
X157876813Y-94950408D01*
G37*
G36*
X157311128Y-95516093D02*
X157700037Y-95127184D01*
X158831408Y-96258555D01*
X158442499Y-96647464D01*
X157311128Y-95516093D01*
X157311128Y-95516093D01*
G37*
G36*
X156745443Y-96081779D02*
X157134352Y-95692870D01*
X158265723Y-96824241D01*
X157876814Y-97213150D01*
X156745443Y-96081779D01*
X156745443Y-96081779D01*
G37*
G36*
X156179757Y-96647464D02*
X156568666Y-96258555D01*
X157700037Y-97389926D01*
X157311128Y-97778835D01*
X156179757Y-96647464D01*
X156179757Y-96647464D01*
G37*
G36*
X157311128Y-98309165D02*
X157700037Y-98698074D01*
X156568666Y-99829445D01*
X156179757Y-99440536D01*
X157311128Y-98309165D01*
X157311128Y-98309165D01*
G37*
G36*
X157876814Y-98874850D02*
X158265723Y-99263759D01*
X157134352Y-100395130D01*
X156745443Y-100006221D01*
X157876814Y-98874850D01*
X157876814Y-98874850D01*
G37*
G36*
X158442499Y-99440536D02*
X158831408Y-99829445D01*
X157700037Y-100960816D01*
X157311128Y-100571907D01*
X158442499Y-99440536D01*
X158442499Y-99440536D01*
G37*
G36*
X159008184Y-100006221D02*
X159397093Y-100395130D01*
X158265722Y-101526501D01*
X157876813Y-101137592D01*
X159008184Y-100006221D01*
X159008184Y-100006221D01*
G37*
G36*
X159573870Y-100571907D02*
X159962779Y-100960816D01*
X158831408Y-102092187D01*
X158442499Y-101703278D01*
X159573870Y-100571907D01*
X159573870Y-100571907D01*
G37*
G36*
X160139555Y-101137592D02*
X160528464Y-101526501D01*
X159397093Y-102657872D01*
X159008184Y-102268963D01*
X160139555Y-101137592D01*
X160139555Y-101137592D01*
G37*
G36*
X160705241Y-101703277D02*
X161094150Y-102092186D01*
X159962779Y-103223557D01*
X159573870Y-102834648D01*
X160705241Y-101703277D01*
X160705241Y-101703277D01*
G37*
G36*
X161270926Y-102268963D02*
X161659835Y-102657872D01*
X160528464Y-103789243D01*
X160139555Y-103400334D01*
X161270926Y-102268963D01*
X161270926Y-102268963D01*
G37*
G36*
X162190165Y-102657872D02*
X162579074Y-102268963D01*
X163710445Y-103400334D01*
X163321536Y-103789243D01*
X162190165Y-102657872D01*
X162190165Y-102657872D01*
G37*
G36*
X162755850Y-102092186D02*
X163144759Y-101703277D01*
X164276130Y-102834648D01*
X163887221Y-103223557D01*
X162755850Y-102092186D01*
X162755850Y-102092186D01*
G37*
G36*
X163321536Y-101526501D02*
X163710445Y-101137592D01*
X164841816Y-102268963D01*
X164452907Y-102657872D01*
X163321536Y-101526501D01*
X163321536Y-101526501D01*
G37*
G36*
X163887221Y-100960816D02*
X164276130Y-100571907D01*
X165407501Y-101703278D01*
X165018592Y-102092187D01*
X163887221Y-100960816D01*
X163887221Y-100960816D01*
G37*
G36*
X164452907Y-100395130D02*
X164841816Y-100006221D01*
X165973187Y-101137592D01*
X165584278Y-101526501D01*
X164452907Y-100395130D01*
X164452907Y-100395130D01*
G37*
G36*
X165018592Y-99829445D02*
X165407501Y-99440536D01*
X166538872Y-100571907D01*
X166149963Y-100960816D01*
X165018592Y-99829445D01*
X165018592Y-99829445D01*
G37*
G36*
X165584277Y-99263759D02*
X165973186Y-98874850D01*
X167104557Y-100006221D01*
X166715648Y-100395130D01*
X165584277Y-99263759D01*
X165584277Y-99263759D01*
G37*
G36*
X166149963Y-98698074D02*
X166538872Y-98309165D01*
X167670243Y-99440536D01*
X167281334Y-99829445D01*
X166149963Y-98698074D01*
X166149963Y-98698074D01*
G37*
D12*
X137541000Y-108229000D03*
D13*
X137541000Y-114529000D03*
X139841000Y-114529000D03*
X135241000Y-114529000D03*
D12*
X130175000Y-108229000D03*
D13*
X130175000Y-114529000D03*
X132475000Y-114529000D03*
X127875000Y-114529000D03*
D14*
X118359000Y-91161000D03*
X119639000Y-91161000D03*
X120899000Y-91161000D03*
X122169000Y-91161000D03*
X123449000Y-91161000D03*
X124719000Y-91161000D03*
X125979000Y-91161000D03*
X127259000Y-91161000D03*
X127259000Y-84861000D03*
X125979000Y-84861000D03*
X124719000Y-84861000D03*
X123449000Y-84861000D03*
X122169000Y-84861000D03*
X120899000Y-84861000D03*
X119639000Y-84861000D03*
X118359000Y-84861000D03*
D15*
X117686000Y-81534000D03*
X115486000Y-81534000D03*
D16*
X130318000Y-104079000D03*
X130318000Y-105979000D03*
X132318000Y-105029000D03*
X130318000Y-100650000D03*
X130318000Y-102550000D03*
X132318000Y-101600000D03*
X130318000Y-97221000D03*
X130318000Y-99121000D03*
X132318000Y-98171000D03*
X130318000Y-93792000D03*
X130318000Y-95692000D03*
X132318000Y-94742000D03*
D17*
X144610000Y-86360000D03*
X142410000Y-86360000D03*
D10*
G36*
X164141217Y-88368273D02*
X165838273Y-86671217D01*
X167252487Y-88085431D01*
X165555431Y-89782487D01*
X164141217Y-88368273D01*
X164141217Y-88368273D01*
G37*
G36*
X166757513Y-90984569D02*
X168454569Y-89287513D01*
X169868783Y-90701727D01*
X168171727Y-92398783D01*
X166757513Y-90984569D01*
X166757513Y-90984569D01*
G37*
D18*
X128778000Y-93992000D03*
X128778000Y-95492000D03*
D19*
X165227000Y-113030000D03*
X166570503Y-111686497D03*
D10*
G36*
X171484895Y-119500027D02*
X166888701Y-114903833D01*
X168444335Y-113348199D01*
X173040529Y-117944393D01*
X171484895Y-119500027D01*
X171484895Y-119500027D01*
G37*
D15*
X125349000Y-113581000D03*
X125349000Y-115781000D03*
D20*
X153674347Y-112967347D03*
D10*
G36*
X157457368Y-118376714D02*
X154275388Y-115194734D01*
X155901734Y-113568388D01*
X159083714Y-116750368D01*
X157457368Y-118376714D01*
X157457368Y-118376714D01*
G37*
G36*
X145860817Y-106780163D02*
X142678837Y-103598183D01*
X144305183Y-101971837D01*
X147487163Y-105153817D01*
X145860817Y-106780163D01*
X145860817Y-106780163D01*
G37*
D19*
X148406402Y-107699402D03*
D21*
X132080000Y-86161000D03*
X132080000Y-89861000D03*
D17*
X144610000Y-99314000D03*
X142410000Y-99314000D03*
X142410000Y-97155000D03*
X144610000Y-97155000D03*
X142410000Y-94996000D03*
X144610000Y-94996000D03*
X142410000Y-92837000D03*
X144610000Y-92837000D03*
X142410000Y-88519000D03*
X144610000Y-88519000D03*
X142410000Y-90678000D03*
X144610000Y-90678000D03*
D22*
X174625000Y-95885000D03*
D23*
X177165000Y-95885000D03*
X174625000Y-98425000D03*
X177165000Y-98425000D03*
X174625000Y-100965000D03*
X177165000Y-100965000D03*
D24*
X115208000Y-110493000D03*
X115208000Y-94993000D03*
D25*
X124808000Y-109593000D03*
D26*
X124808000Y-94993000D03*
D27*
X125308000Y-96143000D03*
X125308000Y-98343000D03*
X125308000Y-97243000D03*
X125308000Y-99443000D03*
X125308000Y-100543000D03*
X125308000Y-101643000D03*
X125308000Y-104943000D03*
X125308000Y-103843000D03*
X125308000Y-102743000D03*
D10*
G36*
X164809897Y-107367290D02*
X164385633Y-106943026D01*
X165481649Y-105847010D01*
X165905913Y-106271274D01*
X164809897Y-107367290D01*
X164809897Y-107367290D01*
G37*
G36*
X165707923Y-108265316D02*
X165283659Y-107841052D01*
X166379675Y-106745036D01*
X166803939Y-107169300D01*
X165707923Y-108265316D01*
X165707923Y-108265316D01*
G37*
G36*
X166605948Y-109163341D02*
X166181684Y-108739077D01*
X167277700Y-107643061D01*
X167701964Y-108067325D01*
X166605948Y-109163341D01*
X166605948Y-109163341D01*
G37*
G36*
X167503974Y-110061367D02*
X167079710Y-109637103D01*
X168175726Y-108541087D01*
X168599990Y-108965351D01*
X167503974Y-110061367D01*
X167503974Y-110061367D01*
G37*
G36*
X171322351Y-106242990D02*
X170898087Y-105818726D01*
X171994103Y-104722710D01*
X172418367Y-105146974D01*
X171322351Y-106242990D01*
X171322351Y-106242990D01*
G37*
G36*
X170424325Y-105344964D02*
X170000061Y-104920700D01*
X171096077Y-103824684D01*
X171520341Y-104248948D01*
X170424325Y-105344964D01*
X170424325Y-105344964D01*
G37*
G36*
X169526300Y-104446939D02*
X169102036Y-104022675D01*
X170198052Y-102926659D01*
X170622316Y-103350923D01*
X169526300Y-104446939D01*
X169526300Y-104446939D01*
G37*
G36*
X168628274Y-103548913D02*
X168204010Y-103124649D01*
X169300026Y-102028633D01*
X169724290Y-102452897D01*
X168628274Y-103548913D01*
X168628274Y-103548913D01*
G37*
D22*
X177546000Y-105156000D03*
D23*
X177546000Y-107696000D03*
X177546000Y-110236000D03*
X177546000Y-112776000D03*
D28*
X177038000Y-90805000D03*
X177038000Y-118745000D03*
X124968000Y-123825000D03*
X126238000Y-75565000D03*
D29*
X138938000Y-123825000D03*
X141478000Y-123825000D03*
X144018000Y-123825000D03*
X146558000Y-123825000D03*
X149098000Y-123825000D03*
X151638000Y-123825000D03*
X154178000Y-123825000D03*
X156718000Y-123825000D03*
X161798000Y-123825000D03*
X164338000Y-123825000D03*
X166878000Y-123825000D03*
X169418000Y-123825000D03*
X171958000Y-123825000D03*
X174498000Y-123825000D03*
X156718000Y-75565000D03*
X159258000Y-75565000D03*
X161798000Y-75565000D03*
X164338000Y-75565000D03*
X166878000Y-75565000D03*
X169418000Y-75565000D03*
X171958000Y-75565000D03*
X174498000Y-75565000D03*
X129794000Y-75565000D03*
X132334000Y-75565000D03*
X134874000Y-75565000D03*
X137414000Y-75565000D03*
X139954000Y-75565000D03*
X142494000Y-75565000D03*
X145034000Y-75565000D03*
X147574000Y-75565000D03*
X150114000Y-75565000D03*
X152654000Y-75565000D03*
D30*
X114562000Y-86265000D03*
D31*
X112387000Y-92315000D03*
X112387000Y-87065000D03*
X112387000Y-89465000D03*
X112387000Y-84215000D03*
D32*
X115062000Y-89565000D03*
X115062000Y-86965000D03*
X115062000Y-87615000D03*
X115062000Y-88915000D03*
X115062000Y-88265000D03*
D30*
X114562000Y-90265000D03*
D33*
X128032000Y-116840000D03*
X130032000Y-116840000D03*
D34*
X129782000Y-118618000D03*
X128282000Y-118618000D03*
D35*
X129286000Y-87237000D03*
X129286000Y-85737000D03*
X129286000Y-88785000D03*
X129286000Y-90285000D03*
D33*
X134858000Y-116840000D03*
X132858000Y-116840000D03*
D34*
X133108000Y-118618000D03*
X134608000Y-118618000D03*
D10*
G36*
X163974678Y-89911348D02*
X163444348Y-90441678D01*
X162878662Y-89875992D01*
X163408992Y-89345662D01*
X163974678Y-89911348D01*
X163974678Y-89911348D01*
G37*
G36*
X165035338Y-90972008D02*
X164505008Y-91502338D01*
X163939322Y-90936652D01*
X164469652Y-90406322D01*
X165035338Y-90972008D01*
X165035338Y-90972008D01*
G37*
D34*
X122186000Y-82232500D03*
X123686000Y-82232500D03*
X138061000Y-118618000D03*
X139561000Y-118618000D03*
D36*
X120992000Y-77470000D03*
X113792000Y-77470000D03*
D37*
X132283000Y-123825000D03*
X134823000Y-123825000D03*
X129743000Y-123825000D03*
D38*
X122734000Y-111824000D03*
X121234000Y-111824000D03*
X172454000Y-100965000D03*
X170954000Y-100965000D03*
X170700000Y-108839000D03*
X172200000Y-108839000D03*
X170700000Y-110363000D03*
X172200000Y-110363000D03*
D18*
X128778000Y-104279000D03*
X128778000Y-105779000D03*
X128778000Y-100850000D03*
X128778000Y-102350000D03*
D39*
X146243000Y-94996000D03*
X148143000Y-94996000D03*
D18*
X128778000Y-97421000D03*
X128778000Y-98921000D03*
D38*
X134608000Y-103505000D03*
X133108000Y-103505000D03*
X134608000Y-100076000D03*
X133108000Y-100076000D03*
X134608000Y-96647000D03*
X133108000Y-96647000D03*
X134608000Y-93218000D03*
X133108000Y-93218000D03*
D10*
G36*
X166098322Y-93095652D02*
X166628652Y-92565322D01*
X167194338Y-93131008D01*
X166664008Y-93661338D01*
X166098322Y-93095652D01*
X166098322Y-93095652D01*
G37*
G36*
X165037662Y-92034992D02*
X165567992Y-91504662D01*
X166133678Y-92070348D01*
X165603348Y-92600678D01*
X165037662Y-92034992D01*
X165037662Y-92034992D01*
G37*
D33*
X139811000Y-116840000D03*
X137811000Y-116840000D03*
D39*
X148143000Y-99314000D03*
X146243000Y-99314000D03*
X146243000Y-97155000D03*
X148143000Y-97155000D03*
X146243000Y-92837000D03*
X148143000Y-92837000D03*
X146243000Y-90678000D03*
X148143000Y-90678000D03*
X146243000Y-88519000D03*
X148143000Y-88519000D03*
X146243000Y-86360000D03*
X148143000Y-86360000D03*
M02*
