G04 #@! TF.FileFunction,Soldermask,Bot*
%FSLAX46Y46*%
G04 Gerber Fmt 4.6, Leading zero omitted, Abs format (unit mm)*
G04 Created by KiCad (PCBNEW 4.0.7) date 04/26/18 08:03:10*
%MOMM*%
%LPD*%
G01*
G04 APERTURE LIST*
%ADD10C,0.100000*%
%ADD11R,3.500000X3.500000*%
%ADD12C,1.000000*%
%ADD13C,1.250000*%
%ADD14R,1.700000X1.700000*%
%ADD15O,1.700000X1.700000*%
%ADD16C,4.064000*%
%ADD17O,1.727200X2.032000*%
%ADD18C,0.550000*%
%ADD19C,1.524000*%
G04 APERTURE END LIST*
D10*
D11*
X122809000Y-118745000D03*
X116809000Y-118745000D03*
X119809000Y-123445000D03*
D12*
X165227000Y-113030000D03*
X166570503Y-111686497D03*
D13*
X153674347Y-112967347D03*
D12*
X148406402Y-107699402D03*
D14*
X174625000Y-95885000D03*
D15*
X177165000Y-95885000D03*
X174625000Y-98425000D03*
X177165000Y-98425000D03*
X174625000Y-100965000D03*
X177165000Y-100965000D03*
D14*
X177546000Y-105156000D03*
D15*
X177546000Y-107696000D03*
X177546000Y-110236000D03*
X177546000Y-112776000D03*
D16*
X177038000Y-90805000D03*
X177038000Y-118745000D03*
X124968000Y-123825000D03*
X126238000Y-75565000D03*
D17*
X138938000Y-123825000D03*
X141478000Y-123825000D03*
X144018000Y-123825000D03*
X146558000Y-123825000D03*
X149098000Y-123825000D03*
X151638000Y-123825000D03*
X154178000Y-123825000D03*
X156718000Y-123825000D03*
X161798000Y-123825000D03*
X164338000Y-123825000D03*
X166878000Y-123825000D03*
X169418000Y-123825000D03*
X171958000Y-123825000D03*
X174498000Y-123825000D03*
X156718000Y-75565000D03*
X159258000Y-75565000D03*
X161798000Y-75565000D03*
X164338000Y-75565000D03*
X166878000Y-75565000D03*
X169418000Y-75565000D03*
X171958000Y-75565000D03*
X174498000Y-75565000D03*
X129794000Y-75565000D03*
X132334000Y-75565000D03*
X134874000Y-75565000D03*
X137414000Y-75565000D03*
X139954000Y-75565000D03*
X142494000Y-75565000D03*
X145034000Y-75565000D03*
X147574000Y-75565000D03*
X150114000Y-75565000D03*
X152654000Y-75565000D03*
D18*
X114562000Y-86265000D03*
X114562000Y-90265000D03*
D19*
X132283000Y-123825000D03*
X134823000Y-123825000D03*
X129743000Y-123825000D03*
M02*
