G04 #@! TF.FileFunction,Legend,Top*
%FSLAX46Y46*%
G04 Gerber Fmt 4.6, Leading zero omitted, Abs format (unit mm)*
G04 Created by KiCad (PCBNEW 4.0.7) date 04/25/18 19:10:17*
%MOMM*%
%LPD*%
G01*
G04 APERTURE LIST*
%ADD10C,0.100000*%
%ADD11C,0.150000*%
%ADD12C,0.200000*%
%ADD13C,0.120000*%
%ADD14C,0.300000*%
%ADD15C,0.010000*%
G04 APERTURE END LIST*
D10*
X118491000Y-89916000D02*
G75*
G03X118491000Y-89916000I-127000J0D01*
G01*
D11*
X146939000Y-81534000D02*
X146939000Y-79946500D01*
D12*
X140195428Y-97476429D02*
X140152571Y-97519286D01*
X140024000Y-97562143D01*
X139938286Y-97562143D01*
X139809714Y-97519286D01*
X139724000Y-97433571D01*
X139681143Y-97347857D01*
X139638286Y-97176429D01*
X139638286Y-97047857D01*
X139681143Y-96876429D01*
X139724000Y-96790714D01*
X139809714Y-96705000D01*
X139938286Y-96662143D01*
X140024000Y-96662143D01*
X140152571Y-96705000D01*
X140195428Y-96747857D01*
X140538286Y-97519286D02*
X140666857Y-97562143D01*
X140881143Y-97562143D01*
X140966857Y-97519286D01*
X141009714Y-97476429D01*
X141052571Y-97390714D01*
X141052571Y-97305000D01*
X141009714Y-97219286D01*
X140966857Y-97176429D01*
X140881143Y-97133571D01*
X140709714Y-97090714D01*
X140624000Y-97047857D01*
X140581143Y-97005000D01*
X140538286Y-96919286D01*
X140538286Y-96833571D01*
X140581143Y-96747857D01*
X140624000Y-96705000D01*
X140709714Y-96662143D01*
X140924000Y-96662143D01*
X141052571Y-96705000D01*
D11*
X143256000Y-121818400D02*
X143256000Y-121767600D01*
X143256000Y-121767600D02*
X143256000Y-117856000D01*
D12*
X132516856Y-121109643D02*
X133073999Y-121109643D01*
X132773999Y-121452500D01*
X132902571Y-121452500D01*
X132988285Y-121495357D01*
X133031142Y-121538214D01*
X133073999Y-121623929D01*
X133073999Y-121838214D01*
X133031142Y-121923929D01*
X132988285Y-121966786D01*
X132902571Y-122009643D01*
X132645428Y-122009643D01*
X132559714Y-121966786D01*
X132516856Y-121923929D01*
X133331142Y-121109643D02*
X133631142Y-122009643D01*
X133931142Y-121109643D01*
X134145428Y-121109643D02*
X134702571Y-121109643D01*
X134402571Y-121452500D01*
X134531143Y-121452500D01*
X134616857Y-121495357D01*
X134659714Y-121538214D01*
X134702571Y-121623929D01*
X134702571Y-121838214D01*
X134659714Y-121923929D01*
X134616857Y-121966786D01*
X134531143Y-122009643D01*
X134274000Y-122009643D01*
X134188286Y-121966786D01*
X134145428Y-121923929D01*
D10*
X166116000Y-98044000D02*
G75*
G03X166116000Y-98044000I-127000J0D01*
G01*
D12*
X116040857Y-75083143D02*
X115740857Y-74654571D01*
X115526572Y-75083143D02*
X115526572Y-74183143D01*
X115869429Y-74183143D01*
X115955143Y-74226000D01*
X115998000Y-74268857D01*
X116040857Y-74354571D01*
X116040857Y-74483143D01*
X115998000Y-74568857D01*
X115955143Y-74611714D01*
X115869429Y-74654571D01*
X115526572Y-74654571D01*
X116426572Y-74611714D02*
X116726572Y-74611714D01*
X116855143Y-75083143D02*
X116426572Y-75083143D01*
X116426572Y-74183143D01*
X116855143Y-74183143D01*
X117198001Y-75040286D02*
X117326572Y-75083143D01*
X117540858Y-75083143D01*
X117626572Y-75040286D01*
X117669429Y-74997429D01*
X117712286Y-74911714D01*
X117712286Y-74826000D01*
X117669429Y-74740286D01*
X117626572Y-74697429D01*
X117540858Y-74654571D01*
X117369429Y-74611714D01*
X117283715Y-74568857D01*
X117240858Y-74526000D01*
X117198001Y-74440286D01*
X117198001Y-74354571D01*
X117240858Y-74268857D01*
X117283715Y-74226000D01*
X117369429Y-74183143D01*
X117583715Y-74183143D01*
X117712286Y-74226000D01*
X118098001Y-74611714D02*
X118398001Y-74611714D01*
X118526572Y-75083143D02*
X118098001Y-75083143D01*
X118098001Y-74183143D01*
X118526572Y-74183143D01*
X118783715Y-74183143D02*
X119298001Y-74183143D01*
X119040858Y-75083143D02*
X119040858Y-74183143D01*
X137881142Y-95403143D02*
X137581142Y-94974571D01*
X137366857Y-95403143D02*
X137366857Y-94503143D01*
X137709714Y-94503143D01*
X137795428Y-94546000D01*
X137838285Y-94588857D01*
X137881142Y-94674571D01*
X137881142Y-94803143D01*
X137838285Y-94888857D01*
X137795428Y-94931714D01*
X137709714Y-94974571D01*
X137366857Y-94974571D01*
X138266857Y-94931714D02*
X138566857Y-94931714D01*
X138695428Y-95403143D02*
X138266857Y-95403143D01*
X138266857Y-94503143D01*
X138695428Y-94503143D01*
X139038286Y-95360286D02*
X139166857Y-95403143D01*
X139381143Y-95403143D01*
X139466857Y-95360286D01*
X139509714Y-95317429D01*
X139552571Y-95231714D01*
X139552571Y-95146000D01*
X139509714Y-95060286D01*
X139466857Y-95017429D01*
X139381143Y-94974571D01*
X139209714Y-94931714D01*
X139124000Y-94888857D01*
X139081143Y-94846000D01*
X139038286Y-94760286D01*
X139038286Y-94674571D01*
X139081143Y-94588857D01*
X139124000Y-94546000D01*
X139209714Y-94503143D01*
X139424000Y-94503143D01*
X139552571Y-94546000D01*
X139938286Y-94931714D02*
X140238286Y-94931714D01*
X140366857Y-95403143D02*
X139938286Y-95403143D01*
X139938286Y-94503143D01*
X140366857Y-94503143D01*
X140624000Y-94503143D02*
X141138286Y-94503143D01*
X140881143Y-95403143D02*
X140881143Y-94503143D01*
X169926713Y-86851381D02*
X169926713Y-85851381D01*
X170260047Y-86565667D01*
X170593380Y-85851381D01*
X170593380Y-86851381D01*
X171212427Y-86851381D02*
X171117189Y-86803762D01*
X171069570Y-86756143D01*
X171021951Y-86660905D01*
X171021951Y-86375190D01*
X171069570Y-86279952D01*
X171117189Y-86232333D01*
X171212427Y-86184714D01*
X171355285Y-86184714D01*
X171450523Y-86232333D01*
X171498142Y-86279952D01*
X171545761Y-86375190D01*
X171545761Y-86660905D01*
X171498142Y-86756143D01*
X171450523Y-86803762D01*
X171355285Y-86851381D01*
X171212427Y-86851381D01*
X172402904Y-86851381D02*
X172402904Y-85851381D01*
X172402904Y-86803762D02*
X172307666Y-86851381D01*
X172117189Y-86851381D01*
X172021951Y-86803762D01*
X171974332Y-86756143D01*
X171926713Y-86660905D01*
X171926713Y-86375190D01*
X171974332Y-86279952D01*
X172021951Y-86232333D01*
X172117189Y-86184714D01*
X172307666Y-86184714D01*
X172402904Y-86232333D01*
X173260047Y-86803762D02*
X173164809Y-86851381D01*
X172974332Y-86851381D01*
X172879094Y-86803762D01*
X172831475Y-86708524D01*
X172831475Y-86327571D01*
X172879094Y-86232333D01*
X172974332Y-86184714D01*
X173164809Y-86184714D01*
X173260047Y-86232333D01*
X173307666Y-86327571D01*
X173307666Y-86422810D01*
X172831475Y-86518048D01*
X173879094Y-86851381D02*
X173783856Y-86803762D01*
X173736237Y-86708524D01*
X173736237Y-85851381D01*
X174974333Y-86565667D02*
X175450524Y-86565667D01*
X174879095Y-86851381D02*
X175212428Y-85851381D01*
X175545762Y-86851381D01*
X172117190Y-88551381D02*
X171783856Y-88075190D01*
X171545761Y-88551381D02*
X171545761Y-87551381D01*
X171926714Y-87551381D01*
X172021952Y-87599000D01*
X172069571Y-87646619D01*
X172117190Y-87741857D01*
X172117190Y-87884714D01*
X172069571Y-87979952D01*
X172021952Y-88027571D01*
X171926714Y-88075190D01*
X171545761Y-88075190D01*
X172926714Y-88503762D02*
X172831476Y-88551381D01*
X172640999Y-88551381D01*
X172545761Y-88503762D01*
X172498142Y-88408524D01*
X172498142Y-88027571D01*
X172545761Y-87932333D01*
X172640999Y-87884714D01*
X172831476Y-87884714D01*
X172926714Y-87932333D01*
X172974333Y-88027571D01*
X172974333Y-88122810D01*
X172498142Y-88218048D01*
X173307666Y-87884714D02*
X173545761Y-88551381D01*
X173783857Y-87884714D01*
X175450524Y-88551381D02*
X174879095Y-88551381D01*
X175164809Y-88551381D02*
X175164809Y-87551381D01*
X175069571Y-87694238D01*
X174974333Y-87789476D01*
X174879095Y-87837095D01*
X139638286Y-99678286D02*
X139766857Y-99721143D01*
X139981143Y-99721143D01*
X140066857Y-99678286D01*
X140109714Y-99635429D01*
X140152571Y-99549714D01*
X140152571Y-99464000D01*
X140109714Y-99378286D01*
X140066857Y-99335429D01*
X139981143Y-99292571D01*
X139809714Y-99249714D01*
X139724000Y-99206857D01*
X139681143Y-99164000D01*
X139638286Y-99078286D01*
X139638286Y-98992571D01*
X139681143Y-98906857D01*
X139724000Y-98864000D01*
X139809714Y-98821143D01*
X140024000Y-98821143D01*
X140152571Y-98864000D01*
X140538286Y-99721143D02*
X140538286Y-98821143D01*
X140752571Y-98821143D01*
X140881143Y-98864000D01*
X140966857Y-98949714D01*
X141009714Y-99035429D01*
X141052571Y-99206857D01*
X141052571Y-99335429D01*
X141009714Y-99506857D01*
X140966857Y-99592571D01*
X140881143Y-99678286D01*
X140752571Y-99721143D01*
X140538286Y-99721143D01*
X139766857Y-92344143D02*
X140281143Y-92344143D01*
X140024000Y-93244143D02*
X140024000Y-92344143D01*
X140495428Y-92344143D02*
X141095428Y-93244143D01*
X141095428Y-92344143D02*
X140495428Y-93244143D01*
X140195428Y-91085143D02*
X139895428Y-90656571D01*
X139681143Y-91085143D02*
X139681143Y-90185143D01*
X140024000Y-90185143D01*
X140109714Y-90228000D01*
X140152571Y-90270857D01*
X140195428Y-90356571D01*
X140195428Y-90485143D01*
X140152571Y-90570857D01*
X140109714Y-90613714D01*
X140024000Y-90656571D01*
X139681143Y-90656571D01*
X140495428Y-90185143D02*
X141095428Y-91085143D01*
X141095428Y-90185143D02*
X140495428Y-91085143D01*
X138738286Y-88883286D02*
X138866857Y-88926143D01*
X139081143Y-88926143D01*
X139166857Y-88883286D01*
X139209714Y-88840429D01*
X139252571Y-88754714D01*
X139252571Y-88669000D01*
X139209714Y-88583286D01*
X139166857Y-88540429D01*
X139081143Y-88497571D01*
X138909714Y-88454714D01*
X138824000Y-88411857D01*
X138781143Y-88369000D01*
X138738286Y-88283286D01*
X138738286Y-88197571D01*
X138781143Y-88111857D01*
X138824000Y-88069000D01*
X138909714Y-88026143D01*
X139124000Y-88026143D01*
X139252571Y-88069000D01*
X140152571Y-88840429D02*
X140109714Y-88883286D01*
X139981143Y-88926143D01*
X139895429Y-88926143D01*
X139766857Y-88883286D01*
X139681143Y-88797571D01*
X139638286Y-88711857D01*
X139595429Y-88540429D01*
X139595429Y-88411857D01*
X139638286Y-88240429D01*
X139681143Y-88154714D01*
X139766857Y-88069000D01*
X139895429Y-88026143D01*
X139981143Y-88026143D01*
X140109714Y-88069000D01*
X140152571Y-88111857D01*
X140538286Y-88926143D02*
X140538286Y-88026143D01*
X141052571Y-88926143D02*
X140666857Y-88411857D01*
X141052571Y-88026143D02*
X140538286Y-88540429D01*
X138609715Y-86767143D02*
X138609715Y-85867143D01*
X138952572Y-85867143D01*
X139038286Y-85910000D01*
X139081143Y-85952857D01*
X139124000Y-86038571D01*
X139124000Y-86167143D01*
X139081143Y-86252857D01*
X139038286Y-86295714D01*
X138952572Y-86338571D01*
X138609715Y-86338571D01*
X139424000Y-85867143D02*
X139638286Y-86767143D01*
X139809715Y-86124286D01*
X139981143Y-86767143D01*
X140195429Y-85867143D01*
X141052571Y-86767143D02*
X140752571Y-86338571D01*
X140538286Y-86767143D02*
X140538286Y-85867143D01*
X140881143Y-85867143D01*
X140966857Y-85910000D01*
X141009714Y-85952857D01*
X141052571Y-86038571D01*
X141052571Y-86167143D01*
X141009714Y-86252857D01*
X140966857Y-86295714D01*
X140881143Y-86338571D01*
X140538286Y-86338571D01*
X130373357Y-121109643D02*
X129944786Y-121109643D01*
X129901929Y-121538214D01*
X129944786Y-121495357D01*
X130030500Y-121452500D01*
X130244786Y-121452500D01*
X130330500Y-121495357D01*
X130373357Y-121538214D01*
X130416214Y-121623929D01*
X130416214Y-121838214D01*
X130373357Y-121923929D01*
X130330500Y-121966786D01*
X130244786Y-122009643D01*
X130030500Y-122009643D01*
X129944786Y-121966786D01*
X129901929Y-121923929D01*
X130673357Y-121109643D02*
X130973357Y-122009643D01*
X131273357Y-121109643D01*
X130158286Y-79784285D02*
X130201143Y-79655714D01*
X130201143Y-79441428D01*
X130158286Y-79355714D01*
X130115429Y-79312857D01*
X130029714Y-79270000D01*
X129944000Y-79270000D01*
X129858286Y-79312857D01*
X129815429Y-79355714D01*
X129772571Y-79441428D01*
X129729714Y-79612857D01*
X129686857Y-79698571D01*
X129644000Y-79741428D01*
X129558286Y-79784285D01*
X129472571Y-79784285D01*
X129386857Y-79741428D01*
X129344000Y-79698571D01*
X129301143Y-79612857D01*
X129301143Y-79398571D01*
X129344000Y-79270000D01*
X130115429Y-78370000D02*
X130158286Y-78412857D01*
X130201143Y-78541428D01*
X130201143Y-78627142D01*
X130158286Y-78755714D01*
X130072571Y-78841428D01*
X129986857Y-78884285D01*
X129815429Y-78927142D01*
X129686857Y-78927142D01*
X129515429Y-78884285D01*
X129429714Y-78841428D01*
X129344000Y-78755714D01*
X129301143Y-78627142D01*
X129301143Y-78541428D01*
X129344000Y-78412857D01*
X129386857Y-78370000D01*
X130201143Y-77555714D02*
X130201143Y-77984285D01*
X129301143Y-77984285D01*
X132698286Y-79827143D02*
X132741143Y-79698572D01*
X132741143Y-79484286D01*
X132698286Y-79398572D01*
X132655429Y-79355715D01*
X132569714Y-79312858D01*
X132484000Y-79312858D01*
X132398286Y-79355715D01*
X132355429Y-79398572D01*
X132312571Y-79484286D01*
X132269714Y-79655715D01*
X132226857Y-79741429D01*
X132184000Y-79784286D01*
X132098286Y-79827143D01*
X132012571Y-79827143D01*
X131926857Y-79784286D01*
X131884000Y-79741429D01*
X131841143Y-79655715D01*
X131841143Y-79441429D01*
X131884000Y-79312858D01*
X132741143Y-78927143D02*
X131841143Y-78927143D01*
X131841143Y-78712858D01*
X131884000Y-78584286D01*
X131969714Y-78498572D01*
X132055429Y-78455715D01*
X132226857Y-78412858D01*
X132355429Y-78412858D01*
X132526857Y-78455715D01*
X132612571Y-78498572D01*
X132698286Y-78584286D01*
X132741143Y-78712858D01*
X132741143Y-78927143D01*
X132484000Y-78070000D02*
X132484000Y-77641429D01*
X132741143Y-78155715D02*
X131841143Y-77855715D01*
X132741143Y-77555715D01*
X140318286Y-82355714D02*
X140361143Y-82227143D01*
X140361143Y-82012857D01*
X140318286Y-81927143D01*
X140275429Y-81884286D01*
X140189714Y-81841429D01*
X140104000Y-81841429D01*
X140018286Y-81884286D01*
X139975429Y-81927143D01*
X139932571Y-82012857D01*
X139889714Y-82184286D01*
X139846857Y-82270000D01*
X139804000Y-82312857D01*
X139718286Y-82355714D01*
X139632571Y-82355714D01*
X139546857Y-82312857D01*
X139504000Y-82270000D01*
X139461143Y-82184286D01*
X139461143Y-81970000D01*
X139504000Y-81841429D01*
X140275429Y-80941429D02*
X140318286Y-80984286D01*
X140361143Y-81112857D01*
X140361143Y-81198571D01*
X140318286Y-81327143D01*
X140232571Y-81412857D01*
X140146857Y-81455714D01*
X139975429Y-81498571D01*
X139846857Y-81498571D01*
X139675429Y-81455714D01*
X139589714Y-81412857D01*
X139504000Y-81327143D01*
X139461143Y-81198571D01*
X139461143Y-81112857D01*
X139504000Y-80984286D01*
X139546857Y-80941429D01*
X140361143Y-80555714D02*
X139461143Y-80555714D01*
X140361143Y-80041429D02*
X139846857Y-80427143D01*
X139461143Y-80041429D02*
X139975429Y-80555714D01*
X140361143Y-78498572D02*
X140361143Y-79012857D01*
X140361143Y-78755715D02*
X139461143Y-78755715D01*
X139589714Y-78841429D01*
X139675429Y-78927143D01*
X139718286Y-79012857D01*
X139461143Y-78198572D02*
X139461143Y-77641429D01*
X139804000Y-77941429D01*
X139804000Y-77812857D01*
X139846857Y-77727143D01*
X139889714Y-77684286D01*
X139975429Y-77641429D01*
X140189714Y-77641429D01*
X140275429Y-77684286D01*
X140318286Y-77727143D01*
X140361143Y-77812857D01*
X140361143Y-78070000D01*
X140318286Y-78155714D01*
X140275429Y-78198572D01*
X135024000Y-80555715D02*
X135024000Y-80127144D01*
X135281143Y-80641430D02*
X134381143Y-80341430D01*
X135281143Y-80041430D01*
X135281143Y-79227144D02*
X134852571Y-79527144D01*
X135281143Y-79741429D02*
X134381143Y-79741429D01*
X134381143Y-79398572D01*
X134424000Y-79312858D01*
X134466857Y-79270001D01*
X134552571Y-79227144D01*
X134681143Y-79227144D01*
X134766857Y-79270001D01*
X134809714Y-79312858D01*
X134852571Y-79398572D01*
X134852571Y-79741429D01*
X134809714Y-78841429D02*
X134809714Y-78541429D01*
X135281143Y-78412858D02*
X135281143Y-78841429D01*
X134381143Y-78841429D01*
X134381143Y-78412858D01*
X134809714Y-77727143D02*
X134809714Y-78027143D01*
X135281143Y-78027143D02*
X134381143Y-78027143D01*
X134381143Y-77598572D01*
X136964000Y-79527143D02*
X136921143Y-79612857D01*
X136921143Y-79741428D01*
X136964000Y-79870000D01*
X137049714Y-79955714D01*
X137135429Y-79998571D01*
X137306857Y-80041428D01*
X137435429Y-80041428D01*
X137606857Y-79998571D01*
X137692571Y-79955714D01*
X137778286Y-79870000D01*
X137821143Y-79741428D01*
X137821143Y-79655714D01*
X137778286Y-79527143D01*
X137735429Y-79484286D01*
X137435429Y-79484286D01*
X137435429Y-79655714D01*
X137821143Y-79098571D02*
X136921143Y-79098571D01*
X137821143Y-78584286D01*
X136921143Y-78584286D01*
X137821143Y-78155714D02*
X136921143Y-78155714D01*
X136921143Y-77941429D01*
X136964000Y-77812857D01*
X137049714Y-77727143D01*
X137135429Y-77684286D01*
X137306857Y-77641429D01*
X137435429Y-77641429D01*
X137606857Y-77684286D01*
X137692571Y-77727143D01*
X137778286Y-77812857D01*
X137821143Y-77941429D01*
X137821143Y-78155714D01*
X143028143Y-82912856D02*
X142128143Y-82912856D01*
X142771000Y-82612856D01*
X142128143Y-82312856D01*
X143028143Y-82312856D01*
X143028143Y-81884285D02*
X142128143Y-81884285D01*
X142985286Y-81498571D02*
X143028143Y-81370000D01*
X143028143Y-81155714D01*
X142985286Y-81070000D01*
X142942429Y-81027143D01*
X142856714Y-80984286D01*
X142771000Y-80984286D01*
X142685286Y-81027143D01*
X142642429Y-81070000D01*
X142599571Y-81155714D01*
X142556714Y-81327143D01*
X142513857Y-81412857D01*
X142471000Y-81455714D01*
X142385286Y-81498571D01*
X142299571Y-81498571D01*
X142213857Y-81455714D01*
X142171000Y-81412857D01*
X142128143Y-81327143D01*
X142128143Y-81112857D01*
X142171000Y-80984286D01*
X142128143Y-80427143D02*
X142128143Y-80255714D01*
X142171000Y-80170000D01*
X142256714Y-80084286D01*
X142428143Y-80041428D01*
X142728143Y-80041428D01*
X142899571Y-80084286D01*
X142985286Y-80170000D01*
X143028143Y-80255714D01*
X143028143Y-80427143D01*
X142985286Y-80512857D01*
X142899571Y-80598571D01*
X142728143Y-80641428D01*
X142428143Y-80641428D01*
X142256714Y-80598571D01*
X142171000Y-80512857D01*
X142128143Y-80427143D01*
X143028143Y-78498572D02*
X143028143Y-79012857D01*
X143028143Y-78755715D02*
X142128143Y-78755715D01*
X142256714Y-78841429D01*
X142342429Y-78927143D01*
X142385286Y-79012857D01*
X142213857Y-78155714D02*
X142171000Y-78112857D01*
X142128143Y-78027143D01*
X142128143Y-77812857D01*
X142171000Y-77727143D01*
X142213857Y-77684286D01*
X142299571Y-77641429D01*
X142385286Y-77641429D01*
X142513857Y-77684286D01*
X143028143Y-78198572D01*
X143028143Y-77641429D01*
X145441143Y-84498570D02*
X144541143Y-84498570D01*
X145184000Y-84198570D01*
X144541143Y-83898570D01*
X145441143Y-83898570D01*
X144541143Y-83298571D02*
X144541143Y-83127142D01*
X144584000Y-83041428D01*
X144669714Y-82955714D01*
X144841143Y-82912856D01*
X145141143Y-82912856D01*
X145312571Y-82955714D01*
X145398286Y-83041428D01*
X145441143Y-83127142D01*
X145441143Y-83298571D01*
X145398286Y-83384285D01*
X145312571Y-83469999D01*
X145141143Y-83512856D01*
X144841143Y-83512856D01*
X144669714Y-83469999D01*
X144584000Y-83384285D01*
X144541143Y-83298571D01*
X145398286Y-82569999D02*
X145441143Y-82441428D01*
X145441143Y-82227142D01*
X145398286Y-82141428D01*
X145355429Y-82098571D01*
X145269714Y-82055714D01*
X145184000Y-82055714D01*
X145098286Y-82098571D01*
X145055429Y-82141428D01*
X145012571Y-82227142D01*
X144969714Y-82398571D01*
X144926857Y-82484285D01*
X144884000Y-82527142D01*
X144798286Y-82569999D01*
X144712571Y-82569999D01*
X144626857Y-82527142D01*
X144584000Y-82484285D01*
X144541143Y-82398571D01*
X144541143Y-82184285D01*
X144584000Y-82055714D01*
X145441143Y-81669999D02*
X144541143Y-81669999D01*
X144841143Y-80598571D02*
X144841143Y-79955714D01*
X144455429Y-80341429D02*
X145612571Y-80598571D01*
X145226857Y-80041429D02*
X145226857Y-80684286D01*
X145612571Y-80298571D02*
X144455429Y-80041429D01*
X145441143Y-78498572D02*
X145441143Y-79012857D01*
X145441143Y-78755715D02*
X144541143Y-78755715D01*
X144669714Y-78841429D01*
X144755429Y-78927143D01*
X144798286Y-79012857D01*
X145441143Y-77641429D02*
X145441143Y-78155714D01*
X145441143Y-77898572D02*
X144541143Y-77898572D01*
X144669714Y-77984286D01*
X144755429Y-78070000D01*
X144798286Y-78155714D01*
X148022429Y-80898572D02*
X148065286Y-80941429D01*
X148108143Y-81070000D01*
X148108143Y-81155714D01*
X148065286Y-81284286D01*
X147979571Y-81370000D01*
X147893857Y-81412857D01*
X147722429Y-81455714D01*
X147593857Y-81455714D01*
X147422429Y-81412857D01*
X147336714Y-81370000D01*
X147251000Y-81284286D01*
X147208143Y-81155714D01*
X147208143Y-81070000D01*
X147251000Y-80941429D01*
X147293857Y-80898572D01*
X148065286Y-80555714D02*
X148108143Y-80427143D01*
X148108143Y-80212857D01*
X148065286Y-80127143D01*
X148022429Y-80084286D01*
X147936714Y-80041429D01*
X147851000Y-80041429D01*
X147765286Y-80084286D01*
X147722429Y-80127143D01*
X147679571Y-80212857D01*
X147636714Y-80384286D01*
X147593857Y-80470000D01*
X147551000Y-80512857D01*
X147465286Y-80555714D01*
X147379571Y-80555714D01*
X147293857Y-80512857D01*
X147251000Y-80470000D01*
X147208143Y-80384286D01*
X147208143Y-80170000D01*
X147251000Y-80041429D01*
X148108143Y-78498572D02*
X148108143Y-79012857D01*
X148108143Y-78755715D02*
X147208143Y-78755715D01*
X147336714Y-78841429D01*
X147422429Y-78927143D01*
X147465286Y-79012857D01*
X147208143Y-77941429D02*
X147208143Y-77855714D01*
X147251000Y-77770000D01*
X147293857Y-77727143D01*
X147379571Y-77684286D01*
X147551000Y-77641429D01*
X147765286Y-77641429D01*
X147936714Y-77684286D01*
X148022429Y-77727143D01*
X148065286Y-77770000D01*
X148108143Y-77855714D01*
X148108143Y-77941429D01*
X148065286Y-78027143D01*
X148022429Y-78070000D01*
X147936714Y-78112857D01*
X147765286Y-78155714D01*
X147551000Y-78155714D01*
X147379571Y-78112857D01*
X147293857Y-78070000D01*
X147251000Y-78027143D01*
X147208143Y-77941429D01*
X149921143Y-79741428D02*
X149921143Y-79098571D01*
X149535429Y-79484286D02*
X150692571Y-79741428D01*
X150306857Y-79184286D02*
X150306857Y-79827143D01*
X150692571Y-79441428D02*
X149535429Y-79184286D01*
X150521143Y-78070000D02*
X150521143Y-77898572D01*
X150478286Y-77812857D01*
X150435429Y-77770000D01*
X150306857Y-77684286D01*
X150135429Y-77641429D01*
X149792571Y-77641429D01*
X149706857Y-77684286D01*
X149664000Y-77727143D01*
X149621143Y-77812857D01*
X149621143Y-77984286D01*
X149664000Y-78070000D01*
X149706857Y-78112857D01*
X149792571Y-78155714D01*
X150006857Y-78155714D01*
X150092571Y-78112857D01*
X150135429Y-78070000D01*
X150178286Y-77984286D01*
X150178286Y-77812857D01*
X150135429Y-77727143D01*
X150092571Y-77684286D01*
X150006857Y-77641429D01*
X152546857Y-77984286D02*
X152504000Y-78070000D01*
X152461143Y-78112857D01*
X152375429Y-78155714D01*
X152332571Y-78155714D01*
X152246857Y-78112857D01*
X152204000Y-78070000D01*
X152161143Y-77984286D01*
X152161143Y-77812857D01*
X152204000Y-77727143D01*
X152246857Y-77684286D01*
X152332571Y-77641429D01*
X152375429Y-77641429D01*
X152461143Y-77684286D01*
X152504000Y-77727143D01*
X152546857Y-77812857D01*
X152546857Y-77984286D01*
X152589714Y-78070000D01*
X152632571Y-78112857D01*
X152718286Y-78155714D01*
X152889714Y-78155714D01*
X152975429Y-78112857D01*
X153018286Y-78070000D01*
X153061143Y-77984286D01*
X153061143Y-77812857D01*
X153018286Y-77727143D01*
X152975429Y-77684286D01*
X152889714Y-77641429D01*
X152718286Y-77641429D01*
X152632571Y-77684286D01*
X152589714Y-77727143D01*
X152546857Y-77812857D01*
X156225143Y-78198572D02*
X156225143Y-77598572D01*
X157125143Y-77984286D01*
X159065143Y-79741428D02*
X159065143Y-79098571D01*
X158679429Y-79484286D02*
X159836571Y-79741428D01*
X159450857Y-79184286D02*
X159450857Y-79827143D01*
X159836571Y-79441428D02*
X158679429Y-79184286D01*
X158765143Y-77727143D02*
X158765143Y-77898572D01*
X158808000Y-77984286D01*
X158850857Y-78027143D01*
X158979429Y-78112857D01*
X159150857Y-78155714D01*
X159493714Y-78155714D01*
X159579429Y-78112857D01*
X159622286Y-78070000D01*
X159665143Y-77984286D01*
X159665143Y-77812857D01*
X159622286Y-77727143D01*
X159579429Y-77684286D01*
X159493714Y-77641429D01*
X159279429Y-77641429D01*
X159193714Y-77684286D01*
X159150857Y-77727143D01*
X159108000Y-77812857D01*
X159108000Y-77984286D01*
X159150857Y-78070000D01*
X159193714Y-78112857D01*
X159279429Y-78155714D01*
X161605143Y-79741428D02*
X161605143Y-79098571D01*
X161219429Y-79484286D02*
X162376571Y-79741428D01*
X161990857Y-79184286D02*
X161990857Y-79827143D01*
X162376571Y-79441428D02*
X161219429Y-79184286D01*
X161305143Y-77684286D02*
X161305143Y-78112857D01*
X161733714Y-78155714D01*
X161690857Y-78112857D01*
X161648000Y-78027143D01*
X161648000Y-77812857D01*
X161690857Y-77727143D01*
X161733714Y-77684286D01*
X161819429Y-77641429D01*
X162033714Y-77641429D01*
X162119429Y-77684286D01*
X162162286Y-77727143D01*
X162205143Y-77812857D01*
X162205143Y-78027143D01*
X162162286Y-78112857D01*
X162119429Y-78155714D01*
X164145143Y-77727143D02*
X164745143Y-77727143D01*
X163802286Y-77941429D02*
X164445143Y-78155714D01*
X164445143Y-77598572D01*
X166685143Y-79741428D02*
X166685143Y-79098571D01*
X166299429Y-79484286D02*
X167456571Y-79741428D01*
X167070857Y-79184286D02*
X167070857Y-79827143D01*
X167456571Y-79441428D02*
X166299429Y-79184286D01*
X166385143Y-78198572D02*
X166385143Y-77641429D01*
X166728000Y-77941429D01*
X166728000Y-77812857D01*
X166770857Y-77727143D01*
X166813714Y-77684286D01*
X166899429Y-77641429D01*
X167113714Y-77641429D01*
X167199429Y-77684286D01*
X167242286Y-77727143D01*
X167285143Y-77812857D01*
X167285143Y-78070000D01*
X167242286Y-78155714D01*
X167199429Y-78198572D01*
X169010857Y-78155714D02*
X168968000Y-78112857D01*
X168925143Y-78027143D01*
X168925143Y-77812857D01*
X168968000Y-77727143D01*
X169010857Y-77684286D01*
X169096571Y-77641429D01*
X169182286Y-77641429D01*
X169310857Y-77684286D01*
X169825143Y-78198572D01*
X169825143Y-77641429D01*
X172365143Y-80041429D02*
X171936571Y-80341429D01*
X172365143Y-80555714D02*
X171465143Y-80555714D01*
X171465143Y-80212857D01*
X171508000Y-80127143D01*
X171550857Y-80084286D01*
X171636571Y-80041429D01*
X171765143Y-80041429D01*
X171850857Y-80084286D01*
X171893714Y-80127143D01*
X171936571Y-80212857D01*
X171936571Y-80555714D01*
X171465143Y-79741429D02*
X172365143Y-79141429D01*
X171465143Y-79141429D02*
X172365143Y-79741429D01*
X172365143Y-77641429D02*
X172365143Y-78155714D01*
X172365143Y-77898572D02*
X171465143Y-77898572D01*
X171593714Y-77984286D01*
X171679429Y-78070000D01*
X171722286Y-78155714D01*
X174005143Y-80470000D02*
X174005143Y-79955714D01*
X174905143Y-80212857D02*
X174005143Y-80212857D01*
X174005143Y-79741429D02*
X174905143Y-79141429D01*
X174005143Y-79141429D02*
X174905143Y-79741429D01*
X174005143Y-77941429D02*
X174005143Y-77855714D01*
X174048000Y-77770000D01*
X174090857Y-77727143D01*
X174176571Y-77684286D01*
X174348000Y-77641429D01*
X174562286Y-77641429D01*
X174733714Y-77684286D01*
X174819429Y-77727143D01*
X174862286Y-77770000D01*
X174905143Y-77855714D01*
X174905143Y-77941429D01*
X174862286Y-78027143D01*
X174819429Y-78070000D01*
X174733714Y-78112857D01*
X174562286Y-78155714D01*
X174348000Y-78155714D01*
X174176571Y-78112857D01*
X174090857Y-78070000D01*
X174048000Y-78027143D01*
X174005143Y-77941429D01*
X173404572Y-94133143D02*
X173404572Y-93233143D01*
X174347428Y-94047429D02*
X174304571Y-94090286D01*
X174176000Y-94133143D01*
X174090286Y-94133143D01*
X173961714Y-94090286D01*
X173876000Y-94004571D01*
X173833143Y-93918857D01*
X173790286Y-93747429D01*
X173790286Y-93618857D01*
X173833143Y-93447429D01*
X173876000Y-93361714D01*
X173961714Y-93276000D01*
X174090286Y-93233143D01*
X174176000Y-93233143D01*
X174304571Y-93276000D01*
X174347428Y-93318857D01*
X174690286Y-94090286D02*
X174818857Y-94133143D01*
X175033143Y-94133143D01*
X175118857Y-94090286D01*
X175161714Y-94047429D01*
X175204571Y-93961714D01*
X175204571Y-93876000D01*
X175161714Y-93790286D01*
X175118857Y-93747429D01*
X175033143Y-93704571D01*
X174861714Y-93661714D01*
X174776000Y-93618857D01*
X174733143Y-93576000D01*
X174690286Y-93490286D01*
X174690286Y-93404571D01*
X174733143Y-93318857D01*
X174776000Y-93276000D01*
X174861714Y-93233143D01*
X175076000Y-93233143D01*
X175204571Y-93276000D01*
X175590286Y-94133143D02*
X175590286Y-93233143D01*
X175933143Y-93233143D01*
X176018857Y-93276000D01*
X176061714Y-93318857D01*
X176104571Y-93404571D01*
X176104571Y-93533143D01*
X176061714Y-93618857D01*
X176018857Y-93661714D01*
X175933143Y-93704571D01*
X175590286Y-93704571D01*
X173647357Y-104706000D02*
X173561643Y-104663143D01*
X173433072Y-104663143D01*
X173304500Y-104706000D01*
X173218786Y-104791714D01*
X173175929Y-104877429D01*
X173133072Y-105048857D01*
X173133072Y-105177429D01*
X173175929Y-105348857D01*
X173218786Y-105434571D01*
X173304500Y-105520286D01*
X173433072Y-105563143D01*
X173518786Y-105563143D01*
X173647357Y-105520286D01*
X173690214Y-105477429D01*
X173690214Y-105177429D01*
X173518786Y-105177429D01*
X174075929Y-105563143D02*
X174075929Y-104663143D01*
X174590214Y-105563143D01*
X174590214Y-104663143D01*
X175018786Y-105563143D02*
X175018786Y-104663143D01*
X175233071Y-104663143D01*
X175361643Y-104706000D01*
X175447357Y-104791714D01*
X175490214Y-104877429D01*
X175533071Y-105048857D01*
X175533071Y-105177429D01*
X175490214Y-105348857D01*
X175447357Y-105434571D01*
X175361643Y-105520286D01*
X175233071Y-105563143D01*
X175018786Y-105563143D01*
X173218785Y-107203143D02*
X173518785Y-108103143D01*
X173818785Y-107203143D01*
X174633071Y-108017429D02*
X174590214Y-108060286D01*
X174461643Y-108103143D01*
X174375929Y-108103143D01*
X174247357Y-108060286D01*
X174161643Y-107974571D01*
X174118786Y-107888857D01*
X174075929Y-107717429D01*
X174075929Y-107588857D01*
X174118786Y-107417429D01*
X174161643Y-107331714D01*
X174247357Y-107246000D01*
X174375929Y-107203143D01*
X174461643Y-107203143D01*
X174590214Y-107246000D01*
X174633071Y-107288857D01*
X175533071Y-108017429D02*
X175490214Y-108060286D01*
X175361643Y-108103143D01*
X175275929Y-108103143D01*
X175147357Y-108060286D01*
X175061643Y-107974571D01*
X175018786Y-107888857D01*
X174975929Y-107717429D01*
X174975929Y-107588857D01*
X175018786Y-107417429D01*
X175061643Y-107331714D01*
X175147357Y-107246000D01*
X175275929Y-107203143D01*
X175361643Y-107203143D01*
X175490214Y-107246000D01*
X175533071Y-107288857D01*
X173347357Y-110600286D02*
X173475928Y-110643143D01*
X173690214Y-110643143D01*
X173775928Y-110600286D01*
X173818785Y-110557429D01*
X173861642Y-110471714D01*
X173861642Y-110386000D01*
X173818785Y-110300286D01*
X173775928Y-110257429D01*
X173690214Y-110214571D01*
X173518785Y-110171714D01*
X173433071Y-110128857D01*
X173390214Y-110086000D01*
X173347357Y-110000286D01*
X173347357Y-109914571D01*
X173390214Y-109828857D01*
X173433071Y-109786000D01*
X173518785Y-109743143D01*
X173733071Y-109743143D01*
X173861642Y-109786000D01*
X174247357Y-110643143D02*
X174247357Y-109743143D01*
X174461642Y-109743143D01*
X174590214Y-109786000D01*
X174675928Y-109871714D01*
X174718785Y-109957429D01*
X174761642Y-110128857D01*
X174761642Y-110257429D01*
X174718785Y-110428857D01*
X174675928Y-110514571D01*
X174590214Y-110600286D01*
X174461642Y-110643143D01*
X174247357Y-110643143D01*
X175104500Y-110386000D02*
X175533071Y-110386000D01*
X175018785Y-110643143D02*
X175318785Y-109743143D01*
X175618785Y-110643143D01*
X173390215Y-113140286D02*
X173518786Y-113183143D01*
X173733072Y-113183143D01*
X173818786Y-113140286D01*
X173861643Y-113097429D01*
X173904500Y-113011714D01*
X173904500Y-112926000D01*
X173861643Y-112840286D01*
X173818786Y-112797429D01*
X173733072Y-112754571D01*
X173561643Y-112711714D01*
X173475929Y-112668857D01*
X173433072Y-112626000D01*
X173390215Y-112540286D01*
X173390215Y-112454571D01*
X173433072Y-112368857D01*
X173475929Y-112326000D01*
X173561643Y-112283143D01*
X173775929Y-112283143D01*
X173904500Y-112326000D01*
X174804500Y-113097429D02*
X174761643Y-113140286D01*
X174633072Y-113183143D01*
X174547358Y-113183143D01*
X174418786Y-113140286D01*
X174333072Y-113054571D01*
X174290215Y-112968857D01*
X174247358Y-112797429D01*
X174247358Y-112668857D01*
X174290215Y-112497429D01*
X174333072Y-112411714D01*
X174418786Y-112326000D01*
X174547358Y-112283143D01*
X174633072Y-112283143D01*
X174761643Y-112326000D01*
X174804500Y-112368857D01*
X175618786Y-113183143D02*
X175190215Y-113183143D01*
X175190215Y-112283143D01*
X172108000Y-121748571D02*
X172108000Y-121320000D01*
X172365143Y-121834286D02*
X171465143Y-121534286D01*
X172365143Y-121234286D01*
X171465143Y-120548571D02*
X171465143Y-120720000D01*
X171508000Y-120805714D01*
X171550857Y-120848571D01*
X171679429Y-120934285D01*
X171850857Y-120977142D01*
X172193714Y-120977142D01*
X172279429Y-120934285D01*
X172322286Y-120891428D01*
X172365143Y-120805714D01*
X172365143Y-120634285D01*
X172322286Y-120548571D01*
X172279429Y-120505714D01*
X172193714Y-120462857D01*
X171979429Y-120462857D01*
X171893714Y-120505714D01*
X171850857Y-120548571D01*
X171808000Y-120634285D01*
X171808000Y-120805714D01*
X171850857Y-120891428D01*
X171893714Y-120934285D01*
X171979429Y-120977142D01*
X174648000Y-121748571D02*
X174648000Y-121320000D01*
X174905143Y-121834286D02*
X174005143Y-121534286D01*
X174905143Y-121234286D01*
X174005143Y-121020000D02*
X174005143Y-120420000D01*
X174905143Y-120805714D01*
X169568000Y-121748571D02*
X169568000Y-121320000D01*
X169825143Y-121834286D02*
X168925143Y-121534286D01*
X169825143Y-121234286D01*
X168925143Y-121020000D02*
X168925143Y-120462857D01*
X169268000Y-120762857D01*
X169268000Y-120634285D01*
X169310857Y-120548571D01*
X169353714Y-120505714D01*
X169439429Y-120462857D01*
X169653714Y-120462857D01*
X169739429Y-120505714D01*
X169782286Y-120548571D01*
X169825143Y-120634285D01*
X169825143Y-120891428D01*
X169782286Y-120977142D01*
X169739429Y-121020000D01*
X166774000Y-121748571D02*
X166774000Y-121320000D01*
X167031143Y-121834286D02*
X166131143Y-121534286D01*
X167031143Y-121234286D01*
X166216857Y-120977142D02*
X166174000Y-120934285D01*
X166131143Y-120848571D01*
X166131143Y-120634285D01*
X166174000Y-120548571D01*
X166216857Y-120505714D01*
X166302571Y-120462857D01*
X166388286Y-120462857D01*
X166516857Y-120505714D01*
X167031143Y-121020000D01*
X167031143Y-120462857D01*
X164488000Y-121748571D02*
X164488000Y-121320000D01*
X164745143Y-121834286D02*
X163845143Y-121534286D01*
X164745143Y-121234286D01*
X164745143Y-120462857D02*
X164745143Y-120977142D01*
X164745143Y-120720000D02*
X163845143Y-120720000D01*
X163973714Y-120805714D01*
X164059429Y-120891428D01*
X164102286Y-120977142D01*
X161948000Y-121748571D02*
X161948000Y-121320000D01*
X162205143Y-121834286D02*
X161305143Y-121534286D01*
X162205143Y-121234286D01*
X161305143Y-120762857D02*
X161305143Y-120677142D01*
X161348000Y-120591428D01*
X161390857Y-120548571D01*
X161476571Y-120505714D01*
X161648000Y-120462857D01*
X161862286Y-120462857D01*
X162033714Y-120505714D01*
X162119429Y-120548571D01*
X162162286Y-120591428D01*
X162205143Y-120677142D01*
X162205143Y-120762857D01*
X162162286Y-120848571D01*
X162119429Y-120891428D01*
X162033714Y-120934285D01*
X161862286Y-120977142D01*
X161648000Y-120977142D01*
X161476571Y-120934285D01*
X161390857Y-120891428D01*
X161348000Y-120848571D01*
X161305143Y-120762857D01*
X156225143Y-121834286D02*
X157125143Y-121534286D01*
X156225143Y-121234286D01*
X157125143Y-120934285D02*
X156225143Y-120934285D01*
X157125143Y-120505714D02*
X156225143Y-120505714D01*
X157125143Y-119991429D01*
X156225143Y-119991429D01*
X153728000Y-121234286D02*
X153685143Y-121320000D01*
X153685143Y-121448571D01*
X153728000Y-121577143D01*
X153813714Y-121662857D01*
X153899429Y-121705714D01*
X154070857Y-121748571D01*
X154199429Y-121748571D01*
X154370857Y-121705714D01*
X154456571Y-121662857D01*
X154542286Y-121577143D01*
X154585143Y-121448571D01*
X154585143Y-121362857D01*
X154542286Y-121234286D01*
X154499429Y-121191429D01*
X154199429Y-121191429D01*
X154199429Y-121362857D01*
X154585143Y-120805714D02*
X153685143Y-120805714D01*
X154585143Y-120291429D01*
X153685143Y-120291429D01*
X154585143Y-119862857D02*
X153685143Y-119862857D01*
X153685143Y-119648572D01*
X153728000Y-119520000D01*
X153813714Y-119434286D01*
X153899429Y-119391429D01*
X154070857Y-119348572D01*
X154199429Y-119348572D01*
X154370857Y-119391429D01*
X154456571Y-119434286D01*
X154542286Y-119520000D01*
X154585143Y-119648572D01*
X154585143Y-119862857D01*
X151188000Y-121234286D02*
X151145143Y-121320000D01*
X151145143Y-121448571D01*
X151188000Y-121577143D01*
X151273714Y-121662857D01*
X151359429Y-121705714D01*
X151530857Y-121748571D01*
X151659429Y-121748571D01*
X151830857Y-121705714D01*
X151916571Y-121662857D01*
X152002286Y-121577143D01*
X152045143Y-121448571D01*
X152045143Y-121362857D01*
X152002286Y-121234286D01*
X151959429Y-121191429D01*
X151659429Y-121191429D01*
X151659429Y-121362857D01*
X152045143Y-120805714D02*
X151145143Y-120805714D01*
X152045143Y-120291429D01*
X151145143Y-120291429D01*
X152045143Y-119862857D02*
X151145143Y-119862857D01*
X151145143Y-119648572D01*
X151188000Y-119520000D01*
X151273714Y-119434286D01*
X151359429Y-119391429D01*
X151530857Y-119348572D01*
X151659429Y-119348572D01*
X151830857Y-119391429D01*
X151916571Y-119434286D01*
X152002286Y-119520000D01*
X152045143Y-119648572D01*
X152045143Y-119862857D01*
X148605143Y-121277143D02*
X148605143Y-121705714D01*
X149033714Y-121748571D01*
X148990857Y-121705714D01*
X148948000Y-121620000D01*
X148948000Y-121405714D01*
X148990857Y-121320000D01*
X149033714Y-121277143D01*
X149119429Y-121234286D01*
X149333714Y-121234286D01*
X149419429Y-121277143D01*
X149462286Y-121320000D01*
X149505143Y-121405714D01*
X149505143Y-121620000D01*
X149462286Y-121705714D01*
X149419429Y-121748571D01*
X148605143Y-120977143D02*
X149505143Y-120677143D01*
X148605143Y-120377143D01*
X146065143Y-121791429D02*
X146065143Y-121234286D01*
X146408000Y-121534286D01*
X146408000Y-121405714D01*
X146450857Y-121320000D01*
X146493714Y-121277143D01*
X146579429Y-121234286D01*
X146793714Y-121234286D01*
X146879429Y-121277143D01*
X146922286Y-121320000D01*
X146965143Y-121405714D01*
X146965143Y-121662857D01*
X146922286Y-121748571D01*
X146879429Y-121791429D01*
X146065143Y-120977143D02*
X146965143Y-120677143D01*
X146065143Y-120377143D01*
X146065143Y-120162857D02*
X146065143Y-119605714D01*
X146408000Y-119905714D01*
X146408000Y-119777142D01*
X146450857Y-119691428D01*
X146493714Y-119648571D01*
X146579429Y-119605714D01*
X146793714Y-119605714D01*
X146879429Y-119648571D01*
X146922286Y-119691428D01*
X146965143Y-119777142D01*
X146965143Y-120034285D01*
X146922286Y-120119999D01*
X146879429Y-120162857D01*
X144425143Y-121191429D02*
X143996571Y-121491429D01*
X144425143Y-121705714D02*
X143525143Y-121705714D01*
X143525143Y-121362857D01*
X143568000Y-121277143D01*
X143610857Y-121234286D01*
X143696571Y-121191429D01*
X143825143Y-121191429D01*
X143910857Y-121234286D01*
X143953714Y-121277143D01*
X143996571Y-121362857D01*
X143996571Y-121705714D01*
X143953714Y-120805714D02*
X143953714Y-120505714D01*
X144425143Y-120377143D02*
X144425143Y-120805714D01*
X143525143Y-120805714D01*
X143525143Y-120377143D01*
X144382286Y-120034285D02*
X144425143Y-119905714D01*
X144425143Y-119691428D01*
X144382286Y-119605714D01*
X144339429Y-119562857D01*
X144253714Y-119520000D01*
X144168000Y-119520000D01*
X144082286Y-119562857D01*
X144039429Y-119605714D01*
X143996571Y-119691428D01*
X143953714Y-119862857D01*
X143910857Y-119948571D01*
X143868000Y-119991428D01*
X143782286Y-120034285D01*
X143696571Y-120034285D01*
X143610857Y-119991428D01*
X143568000Y-119948571D01*
X143525143Y-119862857D01*
X143525143Y-119648571D01*
X143568000Y-119520000D01*
X143953714Y-119134285D02*
X143953714Y-118834285D01*
X144425143Y-118705714D02*
X144425143Y-119134285D01*
X143525143Y-119134285D01*
X143525143Y-118705714D01*
X143525143Y-118448571D02*
X143525143Y-117934285D01*
X144425143Y-118191428D02*
X143525143Y-118191428D01*
X141885143Y-121705714D02*
X140985143Y-121705714D01*
X140985143Y-121105715D02*
X140985143Y-120934286D01*
X141028000Y-120848572D01*
X141113714Y-120762858D01*
X141285143Y-120720000D01*
X141585143Y-120720000D01*
X141756571Y-120762858D01*
X141842286Y-120848572D01*
X141885143Y-120934286D01*
X141885143Y-121105715D01*
X141842286Y-121191429D01*
X141756571Y-121277143D01*
X141585143Y-121320000D01*
X141285143Y-121320000D01*
X141113714Y-121277143D01*
X141028000Y-121191429D01*
X140985143Y-121105715D01*
X141885143Y-119820001D02*
X141456571Y-120120001D01*
X141885143Y-120334286D02*
X140985143Y-120334286D01*
X140985143Y-119991429D01*
X141028000Y-119905715D01*
X141070857Y-119862858D01*
X141156571Y-119820001D01*
X141285143Y-119820001D01*
X141370857Y-119862858D01*
X141413714Y-119905715D01*
X141456571Y-119991429D01*
X141456571Y-120334286D01*
X141413714Y-119434286D02*
X141413714Y-119134286D01*
X141885143Y-119005715D02*
X141885143Y-119434286D01*
X140985143Y-119434286D01*
X140985143Y-119005715D01*
X141413714Y-118320000D02*
X141413714Y-118620000D01*
X141885143Y-118620000D02*
X140985143Y-118620000D01*
X140985143Y-118191429D01*
D13*
X117809000Y-123345000D02*
X109009000Y-123345000D01*
X109009000Y-123345000D02*
X109009000Y-114145000D01*
X123709000Y-120645000D02*
X123709000Y-123345000D01*
X123709000Y-123345000D02*
X121809000Y-123345000D01*
X109009000Y-114145000D02*
X123709000Y-114145000D01*
X123709000Y-114145000D02*
X123709000Y-116745000D01*
D11*
X167051524Y-98044000D02*
X166821714Y-97814190D01*
X161925000Y-103170524D02*
X161695190Y-102940714D01*
X156798476Y-98044000D02*
X157028286Y-98273810D01*
X161925000Y-92917476D02*
X162154810Y-93147286D01*
X167051524Y-98044000D02*
X166821714Y-98273810D01*
X161925000Y-92917476D02*
X161695190Y-93147286D01*
X156798476Y-98044000D02*
X157028286Y-97814190D01*
X161925000Y-103170524D02*
X162154810Y-102940714D01*
D13*
X140951000Y-109469000D02*
X139691000Y-109469000D01*
X134131000Y-109469000D02*
X135391000Y-109469000D01*
X140951000Y-113229000D02*
X140951000Y-109469000D01*
X134131000Y-113229000D02*
X134131000Y-109469000D01*
X133585000Y-109469000D02*
X132325000Y-109469000D01*
X126765000Y-109469000D02*
X128025000Y-109469000D01*
X133585000Y-113229000D02*
X133585000Y-109469000D01*
X126765000Y-113229000D02*
X126765000Y-109469000D01*
X128209000Y-90411000D02*
X127809000Y-90411000D01*
X128209000Y-85611000D02*
X127809000Y-85611000D01*
X117409000Y-85611000D02*
X117809000Y-85611000D01*
X117409000Y-90411000D02*
X117809000Y-90411000D01*
X117409000Y-90411000D02*
X117409000Y-85611000D01*
X128209000Y-90411000D02*
X128209000Y-85611000D01*
X117636000Y-80684000D02*
X115536000Y-80684000D01*
X117636000Y-82384000D02*
X115536000Y-82384000D01*
D10*
X116386000Y-81184000D02*
X116886000Y-81534000D01*
X116386000Y-81884000D02*
X116386000Y-81184000D01*
X116886000Y-81534000D02*
X116386000Y-81884000D01*
X116886000Y-81884000D02*
X116886000Y-81184000D01*
D13*
X132078000Y-106609000D02*
X132078000Y-105679000D01*
X132078000Y-103449000D02*
X132078000Y-104379000D01*
X132078000Y-103449000D02*
X130618000Y-103449000D01*
X132078000Y-106609000D02*
X130618000Y-106609000D01*
X132078000Y-103180000D02*
X132078000Y-102250000D01*
X132078000Y-100020000D02*
X132078000Y-100950000D01*
X132078000Y-100020000D02*
X130618000Y-100020000D01*
X132078000Y-103180000D02*
X130618000Y-103180000D01*
X132078000Y-99751000D02*
X132078000Y-98821000D01*
X132078000Y-96591000D02*
X132078000Y-97521000D01*
X132078000Y-96591000D02*
X130618000Y-96591000D01*
X132078000Y-99751000D02*
X130618000Y-99751000D01*
X132078000Y-96322000D02*
X132078000Y-95392000D01*
X132078000Y-93162000D02*
X132078000Y-94092000D01*
X132078000Y-93162000D02*
X130618000Y-93162000D01*
X132078000Y-96322000D02*
X130618000Y-96322000D01*
D10*
X143110000Y-85960000D02*
X143110000Y-86760000D01*
X143110000Y-86360000D02*
X143710000Y-85960000D01*
X143710000Y-86760000D02*
X143110000Y-86360000D01*
X143710000Y-85960000D02*
X143710000Y-86760000D01*
D13*
X142510000Y-87060000D02*
X144510000Y-87060000D01*
X142510000Y-85660000D02*
X144510000Y-85660000D01*
X170186981Y-90171396D02*
X166368604Y-86353019D01*
X163823019Y-88898604D02*
X167641396Y-92716981D01*
X128098000Y-95242000D02*
X128098000Y-94242000D01*
X129458000Y-94242000D02*
X129458000Y-95242000D01*
D10*
X124999000Y-114881000D02*
X125349000Y-114381000D01*
X125699000Y-114881000D02*
X124999000Y-114881000D01*
X125349000Y-114381000D02*
X125699000Y-114881000D01*
X125699000Y-114381000D02*
X124999000Y-114381000D01*
D13*
X124499000Y-113631000D02*
X124499000Y-115731000D01*
X126199000Y-113631000D02*
X126199000Y-115731000D01*
D14*
X156398123Y-112458231D02*
X157116543Y-111739810D01*
X156398123Y-111739810D02*
X157116543Y-112458231D01*
D11*
X156757333Y-112099020D02*
X156577728Y-112278625D01*
X156577728Y-112278625D02*
X156936938Y-111919415D01*
X158196365Y-110123364D02*
G75*
G03X158196365Y-110123364I-7366001J0D01*
G01*
D13*
X133880000Y-90711000D02*
X133880000Y-85311000D01*
X130280000Y-85311000D02*
X130280000Y-90711000D01*
D10*
X143110000Y-98914000D02*
X143110000Y-99714000D01*
X143110000Y-99314000D02*
X143710000Y-98914000D01*
X143710000Y-99714000D02*
X143110000Y-99314000D01*
X143710000Y-98914000D02*
X143710000Y-99714000D01*
D13*
X142510000Y-100014000D02*
X144510000Y-100014000D01*
X142510000Y-98614000D02*
X144510000Y-98614000D01*
D10*
X143910000Y-97555000D02*
X143910000Y-96755000D01*
X143910000Y-97155000D02*
X143310000Y-97555000D01*
X143310000Y-96755000D02*
X143910000Y-97155000D01*
X143310000Y-97555000D02*
X143310000Y-96755000D01*
D13*
X144510000Y-96455000D02*
X142510000Y-96455000D01*
X144510000Y-97855000D02*
X142510000Y-97855000D01*
D10*
X143910000Y-95396000D02*
X143910000Y-94596000D01*
X143910000Y-94996000D02*
X143310000Y-95396000D01*
X143310000Y-94596000D02*
X143910000Y-94996000D01*
X143310000Y-95396000D02*
X143310000Y-94596000D01*
D13*
X144510000Y-94296000D02*
X142510000Y-94296000D01*
X144510000Y-95696000D02*
X142510000Y-95696000D01*
D10*
X143910000Y-93237000D02*
X143910000Y-92437000D01*
X143910000Y-92837000D02*
X143310000Y-93237000D01*
X143310000Y-92437000D02*
X143910000Y-92837000D01*
X143310000Y-93237000D02*
X143310000Y-92437000D01*
D13*
X144510000Y-92137000D02*
X142510000Y-92137000D01*
X144510000Y-93537000D02*
X142510000Y-93537000D01*
D10*
X143910000Y-88919000D02*
X143910000Y-88119000D01*
X143910000Y-88519000D02*
X143310000Y-88919000D01*
X143310000Y-88119000D02*
X143910000Y-88519000D01*
X143310000Y-88919000D02*
X143310000Y-88119000D01*
D13*
X144510000Y-87819000D02*
X142510000Y-87819000D01*
X144510000Y-89219000D02*
X142510000Y-89219000D01*
D10*
X143910000Y-91078000D02*
X143910000Y-90278000D01*
X143910000Y-90678000D02*
X143310000Y-91078000D01*
X143310000Y-90278000D02*
X143910000Y-90678000D01*
X143310000Y-91078000D02*
X143310000Y-90278000D01*
D13*
X144510000Y-89978000D02*
X142510000Y-89978000D01*
X144510000Y-91378000D02*
X142510000Y-91378000D01*
X173295000Y-102295000D02*
X178495000Y-102295000D01*
X173295000Y-97155000D02*
X173295000Y-102295000D01*
X178495000Y-94555000D02*
X178495000Y-102295000D01*
X175895000Y-94555000D02*
X178495000Y-94555000D01*
X173295000Y-97155000D02*
X173295000Y-94555000D01*
X173295000Y-94555000D02*
X175895000Y-94555000D01*
D11*
X111508000Y-95393000D02*
X111508000Y-102743000D01*
X111508000Y-102743000D02*
X111458000Y-104093000D01*
X111458000Y-104093000D02*
X111308000Y-105243000D01*
X111308000Y-105243000D02*
X111108000Y-106343000D01*
X111108000Y-106343000D02*
X110808000Y-107393000D01*
X116608000Y-95393000D02*
X123808000Y-95393000D01*
X113808000Y-95393000D02*
X111508000Y-95393000D01*
X110808000Y-107393000D02*
X110808000Y-110093000D01*
X110808000Y-110093000D02*
X113808000Y-110093000D01*
X123808000Y-110093000D02*
X116608000Y-110093000D01*
X124808000Y-105543000D02*
X124808000Y-108543000D01*
X165113953Y-105691447D02*
X165216484Y-105793977D01*
X168048447Y-102756953D02*
X168150977Y-102859484D01*
X171690047Y-106398553D02*
X171587516Y-106296023D01*
X168755553Y-109333047D02*
X168653023Y-109230516D01*
X165113953Y-105691447D02*
X168048447Y-102756953D01*
X168755553Y-109333047D02*
X171690047Y-106398553D01*
D13*
X176212500Y-106426000D02*
X176212500Y-103822500D01*
X176212500Y-103822500D02*
X178879500Y-103822500D01*
X178879500Y-103822500D02*
X178879500Y-106426000D01*
X176216000Y-114106000D02*
X178876000Y-114106000D01*
X176216000Y-106426000D02*
X176216000Y-114106000D01*
X178876000Y-106426000D02*
X178876000Y-114106000D01*
D11*
X140208000Y-125095000D02*
X137668000Y-125095000D01*
X137668000Y-125095000D02*
X137668000Y-122555000D01*
X137668000Y-122555000D02*
X140208000Y-122555000D01*
X140208000Y-125095000D02*
X157988000Y-125095000D01*
X157988000Y-125095000D02*
X157988000Y-122555000D01*
X157988000Y-122555000D02*
X140208000Y-122555000D01*
X163068000Y-125095000D02*
X160528000Y-125095000D01*
X160528000Y-125095000D02*
X160528000Y-122555000D01*
X160528000Y-122555000D02*
X163068000Y-122555000D01*
X163068000Y-125095000D02*
X175768000Y-125095000D01*
X175768000Y-125095000D02*
X175768000Y-122555000D01*
X175768000Y-122555000D02*
X163068000Y-122555000D01*
X157988000Y-76835000D02*
X155448000Y-76835000D01*
X155448000Y-76835000D02*
X155448000Y-74295000D01*
X155448000Y-74295000D02*
X155575000Y-74295000D01*
X157988000Y-74295000D02*
X155575000Y-74295000D01*
X157988000Y-76835000D02*
X175768000Y-76835000D01*
X175768000Y-76835000D02*
X175768000Y-74295000D01*
X175768000Y-74295000D02*
X157988000Y-74295000D01*
X128651000Y-76835000D02*
X128524000Y-76835000D01*
X128524000Y-76835000D02*
X128524000Y-74295000D01*
X128524000Y-74295000D02*
X128651000Y-74295000D01*
X131064000Y-74295000D02*
X128651000Y-74295000D01*
X128651000Y-76835000D02*
X131064000Y-76835000D01*
X131064000Y-76835000D02*
X153924000Y-76835000D01*
X153924000Y-76835000D02*
X153924000Y-74295000D01*
X153924000Y-74295000D02*
X131064000Y-74295000D01*
D10*
X115062000Y-92329000D02*
X113855500Y-92329000D01*
X115062000Y-84201000D02*
X113855500Y-84201000D01*
X115062000Y-84215000D02*
X115062000Y-86265000D01*
X115062000Y-90265000D02*
X115062000Y-92315000D01*
X113862000Y-86106000D02*
X113862000Y-90424000D01*
D13*
X129532000Y-115990000D02*
X128532000Y-115990000D01*
X128532000Y-117690000D02*
X129532000Y-117690000D01*
X129382000Y-119218000D02*
X128682000Y-119218000D01*
X128682000Y-118018000D02*
X129382000Y-118018000D01*
X128686000Y-86837000D02*
X128686000Y-86137000D01*
X129886000Y-86137000D02*
X129886000Y-86837000D01*
X129886000Y-89185000D02*
X129886000Y-89885000D01*
X128686000Y-89885000D02*
X128686000Y-89185000D01*
X133358000Y-117690000D02*
X134358000Y-117690000D01*
X134358000Y-115990000D02*
X133358000Y-115990000D01*
X133508000Y-118018000D02*
X134208000Y-118018000D01*
X134208000Y-119218000D02*
X133508000Y-119218000D01*
X164133777Y-89752249D02*
X164628751Y-90247223D01*
X163780223Y-91095751D02*
X163285249Y-90600777D01*
X122586000Y-81632500D02*
X123286000Y-81632500D01*
X123286000Y-82832500D02*
X122586000Y-82832500D01*
X138461000Y-118018000D02*
X139161000Y-118018000D01*
X139161000Y-119218000D02*
X138461000Y-119218000D01*
D10*
X128727000Y-124841000D02*
X135839000Y-124841000D01*
X135839000Y-124841000D02*
X135839000Y-122809000D01*
X135839000Y-122809000D02*
X128727000Y-122809000D01*
X128727000Y-122809000D02*
X128727000Y-124841000D01*
D13*
X121484000Y-111144000D02*
X122484000Y-111144000D01*
X122484000Y-112504000D02*
X121484000Y-112504000D01*
X171204000Y-100285000D02*
X172204000Y-100285000D01*
X172204000Y-101645000D02*
X171204000Y-101645000D01*
X171950000Y-109519000D02*
X170950000Y-109519000D01*
X170950000Y-108159000D02*
X171950000Y-108159000D01*
X171950000Y-111043000D02*
X170950000Y-111043000D01*
X170950000Y-109683000D02*
X171950000Y-109683000D01*
X128098000Y-105529000D02*
X128098000Y-104529000D01*
X129458000Y-104529000D02*
X129458000Y-105529000D01*
X128098000Y-102100000D02*
X128098000Y-101100000D01*
X129458000Y-101100000D02*
X129458000Y-102100000D01*
X147793000Y-95876000D02*
X146593000Y-95876000D01*
X146593000Y-94116000D02*
X147793000Y-94116000D01*
X128098000Y-98671000D02*
X128098000Y-97671000D01*
X129458000Y-97671000D02*
X129458000Y-98671000D01*
X133358000Y-102825000D02*
X134358000Y-102825000D01*
X134358000Y-104185000D02*
X133358000Y-104185000D01*
X133358000Y-99396000D02*
X134358000Y-99396000D01*
X134358000Y-100756000D02*
X133358000Y-100756000D01*
X133358000Y-95967000D02*
X134358000Y-95967000D01*
X134358000Y-97327000D02*
X133358000Y-97327000D01*
X133358000Y-92538000D02*
X134358000Y-92538000D01*
X134358000Y-93898000D02*
X133358000Y-93898000D01*
X165939223Y-93254751D02*
X165444249Y-92759777D01*
X166292777Y-91911249D02*
X166787751Y-92406223D01*
X138311000Y-117690000D02*
X139311000Y-117690000D01*
X139311000Y-115990000D02*
X138311000Y-115990000D01*
X146593000Y-98434000D02*
X147793000Y-98434000D01*
X147793000Y-100194000D02*
X146593000Y-100194000D01*
X147793000Y-98035000D02*
X146593000Y-98035000D01*
X146593000Y-96275000D02*
X147793000Y-96275000D01*
X147793000Y-93717000D02*
X146593000Y-93717000D01*
X146593000Y-91957000D02*
X147793000Y-91957000D01*
X147793000Y-91558000D02*
X146593000Y-91558000D01*
X146593000Y-89798000D02*
X147793000Y-89798000D01*
X147793000Y-89399000D02*
X146593000Y-89399000D01*
X146593000Y-87639000D02*
X147793000Y-87639000D01*
X147793000Y-87240000D02*
X146593000Y-87240000D01*
X146593000Y-85480000D02*
X147793000Y-85480000D01*
D15*
G36*
X149730286Y-84760381D02*
X149735692Y-84767515D01*
X149803886Y-84923085D01*
X149847179Y-85140985D01*
X149861131Y-85361994D01*
X149841303Y-85526895D01*
X149796500Y-85578715D01*
X149690511Y-85626971D01*
X149526173Y-85739561D01*
X149319347Y-85898524D01*
X149647020Y-85988999D01*
X149888784Y-86034274D01*
X150105479Y-86006981D01*
X150351442Y-85912820D01*
X150689327Y-85786002D01*
X150939221Y-85757933D01*
X151150628Y-85828523D01*
X151270713Y-85911160D01*
X151466508Y-86022105D01*
X151656163Y-86008438D01*
X151691746Y-85995827D01*
X152033109Y-85925187D01*
X152417662Y-85931604D01*
X152756551Y-86011642D01*
X152817258Y-86039358D01*
X152994504Y-86114748D01*
X153108546Y-86091448D01*
X153207176Y-85997025D01*
X153380808Y-85862767D01*
X153576585Y-85850305D01*
X153836037Y-85960340D01*
X153918900Y-86009009D01*
X154109234Y-86117136D01*
X154214818Y-86136920D01*
X154293046Y-86072048D01*
X154321067Y-86034844D01*
X154411499Y-85864344D01*
X154432000Y-85772317D01*
X154475820Y-85670739D01*
X154567347Y-85693075D01*
X154634608Y-85795424D01*
X154680917Y-86087310D01*
X154572063Y-86313572D01*
X154497827Y-86376365D01*
X154222476Y-86488250D01*
X153922848Y-86490164D01*
X153672826Y-86382839D01*
X153655500Y-86368044D01*
X153526483Y-86274394D01*
X153421326Y-86304128D01*
X153345833Y-86368044D01*
X153131492Y-86487453D01*
X152871809Y-86477871D01*
X152586430Y-86366692D01*
X152396317Y-86289952D01*
X152213757Y-86272547D01*
X151967021Y-86311681D01*
X151852755Y-86338092D01*
X151550262Y-86398763D01*
X151341756Y-86396965D01*
X151160801Y-86324435D01*
X151026320Y-86235330D01*
X150885193Y-86175899D01*
X150704436Y-86207139D01*
X150602987Y-86246212D01*
X150177451Y-86378823D01*
X149791997Y-86418805D01*
X149465706Y-86377986D01*
X149217657Y-86268195D01*
X149066930Y-86101259D01*
X149032605Y-85889008D01*
X149133761Y-85643270D01*
X149309666Y-85444426D01*
X149515119Y-85216004D01*
X149600504Y-84995886D01*
X149608692Y-84888080D01*
X149616413Y-84704525D01*
X149649487Y-84669038D01*
X149730286Y-84760381D01*
X149730286Y-84760381D01*
G37*
X149730286Y-84760381D02*
X149735692Y-84767515D01*
X149803886Y-84923085D01*
X149847179Y-85140985D01*
X149861131Y-85361994D01*
X149841303Y-85526895D01*
X149796500Y-85578715D01*
X149690511Y-85626971D01*
X149526173Y-85739561D01*
X149319347Y-85898524D01*
X149647020Y-85988999D01*
X149888784Y-86034274D01*
X150105479Y-86006981D01*
X150351442Y-85912820D01*
X150689327Y-85786002D01*
X150939221Y-85757933D01*
X151150628Y-85828523D01*
X151270713Y-85911160D01*
X151466508Y-86022105D01*
X151656163Y-86008438D01*
X151691746Y-85995827D01*
X152033109Y-85925187D01*
X152417662Y-85931604D01*
X152756551Y-86011642D01*
X152817258Y-86039358D01*
X152994504Y-86114748D01*
X153108546Y-86091448D01*
X153207176Y-85997025D01*
X153380808Y-85862767D01*
X153576585Y-85850305D01*
X153836037Y-85960340D01*
X153918900Y-86009009D01*
X154109234Y-86117136D01*
X154214818Y-86136920D01*
X154293046Y-86072048D01*
X154321067Y-86034844D01*
X154411499Y-85864344D01*
X154432000Y-85772317D01*
X154475820Y-85670739D01*
X154567347Y-85693075D01*
X154634608Y-85795424D01*
X154680917Y-86087310D01*
X154572063Y-86313572D01*
X154497827Y-86376365D01*
X154222476Y-86488250D01*
X153922848Y-86490164D01*
X153672826Y-86382839D01*
X153655500Y-86368044D01*
X153526483Y-86274394D01*
X153421326Y-86304128D01*
X153345833Y-86368044D01*
X153131492Y-86487453D01*
X152871809Y-86477871D01*
X152586430Y-86366692D01*
X152396317Y-86289952D01*
X152213757Y-86272547D01*
X151967021Y-86311681D01*
X151852755Y-86338092D01*
X151550262Y-86398763D01*
X151341756Y-86396965D01*
X151160801Y-86324435D01*
X151026320Y-86235330D01*
X150885193Y-86175899D01*
X150704436Y-86207139D01*
X150602987Y-86246212D01*
X150177451Y-86378823D01*
X149791997Y-86418805D01*
X149465706Y-86377986D01*
X149217657Y-86268195D01*
X149066930Y-86101259D01*
X149032605Y-85889008D01*
X149133761Y-85643270D01*
X149309666Y-85444426D01*
X149515119Y-85216004D01*
X149600504Y-84995886D01*
X149608692Y-84888080D01*
X149616413Y-84704525D01*
X149649487Y-84669038D01*
X149730286Y-84760381D01*
G36*
X156812945Y-80896068D02*
X156895501Y-81070000D01*
X156952191Y-81280085D01*
X157033065Y-81684879D01*
X157049723Y-81973001D01*
X156996096Y-82186818D01*
X156866110Y-82368695D01*
X156784809Y-82448015D01*
X156619311Y-82619510D01*
X156577215Y-82732241D01*
X156615476Y-82798842D01*
X156710570Y-83004021D01*
X156677048Y-83266666D01*
X156521321Y-83542059D01*
X156506333Y-83560273D01*
X156367555Y-83771765D01*
X156305249Y-84018009D01*
X156294666Y-84255155D01*
X156279458Y-84543026D01*
X156217427Y-84732781D01*
X156083963Y-84894176D01*
X156061833Y-84915086D01*
X155831955Y-85080299D01*
X155589811Y-85187472D01*
X155575000Y-85191203D01*
X155318917Y-85296774D01*
X155130500Y-85428534D01*
X154997887Y-85545275D01*
X154947769Y-85547342D01*
X154940000Y-85438440D01*
X155022023Y-85169354D01*
X155259580Y-84934134D01*
X155456361Y-84822613D01*
X155621807Y-84732448D01*
X155711188Y-84626153D01*
X155752224Y-84449586D01*
X155769411Y-84211111D01*
X155798769Y-83913465D01*
X155865693Y-83717628D01*
X155997097Y-83556410D01*
X156051945Y-83505792D01*
X156210875Y-83334896D01*
X156266128Y-83164506D01*
X156225981Y-82937306D01*
X156160698Y-82752872D01*
X156189019Y-82605995D01*
X156344796Y-82392397D01*
X156421826Y-82311362D01*
X156604664Y-82114185D01*
X156685130Y-81965447D01*
X156688340Y-81802141D01*
X156668337Y-81693022D01*
X156604359Y-81281240D01*
X156612066Y-81002666D01*
X156690890Y-80866612D01*
X156719358Y-80856390D01*
X156812945Y-80896068D01*
X156812945Y-80896068D01*
G37*
X156812945Y-80896068D02*
X156895501Y-81070000D01*
X156952191Y-81280085D01*
X157033065Y-81684879D01*
X157049723Y-81973001D01*
X156996096Y-82186818D01*
X156866110Y-82368695D01*
X156784809Y-82448015D01*
X156619311Y-82619510D01*
X156577215Y-82732241D01*
X156615476Y-82798842D01*
X156710570Y-83004021D01*
X156677048Y-83266666D01*
X156521321Y-83542059D01*
X156506333Y-83560273D01*
X156367555Y-83771765D01*
X156305249Y-84018009D01*
X156294666Y-84255155D01*
X156279458Y-84543026D01*
X156217427Y-84732781D01*
X156083963Y-84894176D01*
X156061833Y-84915086D01*
X155831955Y-85080299D01*
X155589811Y-85187472D01*
X155575000Y-85191203D01*
X155318917Y-85296774D01*
X155130500Y-85428534D01*
X154997887Y-85545275D01*
X154947769Y-85547342D01*
X154940000Y-85438440D01*
X155022023Y-85169354D01*
X155259580Y-84934134D01*
X155456361Y-84822613D01*
X155621807Y-84732448D01*
X155711188Y-84626153D01*
X155752224Y-84449586D01*
X155769411Y-84211111D01*
X155798769Y-83913465D01*
X155865693Y-83717628D01*
X155997097Y-83556410D01*
X156051945Y-83505792D01*
X156210875Y-83334896D01*
X156266128Y-83164506D01*
X156225981Y-82937306D01*
X156160698Y-82752872D01*
X156189019Y-82605995D01*
X156344796Y-82392397D01*
X156421826Y-82311362D01*
X156604664Y-82114185D01*
X156685130Y-81965447D01*
X156688340Y-81802141D01*
X156668337Y-81693022D01*
X156604359Y-81281240D01*
X156612066Y-81002666D01*
X156690890Y-80866612D01*
X156719358Y-80856390D01*
X156812945Y-80896068D01*
G36*
X158539152Y-81305133D02*
X158926469Y-81425965D01*
X159307124Y-81594229D01*
X159613832Y-81782822D01*
X159701459Y-81858600D01*
X159890574Y-82112912D01*
X159934158Y-82360233D01*
X159827556Y-82608125D01*
X159566111Y-82864150D01*
X159145165Y-83135868D01*
X158805251Y-83313948D01*
X158511634Y-83466709D01*
X158287421Y-83598585D01*
X158167933Y-83688172D01*
X158157333Y-83706578D01*
X158219579Y-83787902D01*
X158384733Y-83944142D01*
X158620420Y-84148372D01*
X158894265Y-84373663D01*
X159173893Y-84593088D01*
X159426929Y-84779719D01*
X159540392Y-84856916D01*
X159713119Y-84953174D01*
X159808652Y-84947921D01*
X159854369Y-84893508D01*
X159896891Y-84715788D01*
X159885700Y-84603870D01*
X159906156Y-84450155D01*
X160046776Y-84248947D01*
X160206723Y-84084039D01*
X160600221Y-83727842D01*
X160959393Y-83444882D01*
X161267260Y-83244773D01*
X161506842Y-83137124D01*
X161661162Y-83131546D01*
X161713333Y-83231212D01*
X161653883Y-83335493D01*
X161495924Y-83515434D01*
X161270040Y-83737116D01*
X161198043Y-83802712D01*
X160950433Y-84035151D01*
X160725686Y-84264476D01*
X160543286Y-84467674D01*
X160422719Y-84621733D01*
X160383469Y-84703641D01*
X160445019Y-84690386D01*
X160447848Y-84688736D01*
X160577196Y-84597712D01*
X160784594Y-84437047D01*
X160963083Y-84292448D01*
X161259031Y-84070376D01*
X161459693Y-83978113D01*
X161577764Y-84015031D01*
X161625939Y-84180502D01*
X161628666Y-84259503D01*
X161649013Y-84468841D01*
X161698701Y-84592924D01*
X161705692Y-84598444D01*
X161812893Y-84626830D01*
X161936361Y-84572175D01*
X162092194Y-84418388D01*
X162296490Y-84149376D01*
X162565345Y-83749049D01*
X162583757Y-83720693D01*
X162747096Y-83492083D01*
X162860579Y-83400394D01*
X162932330Y-83453238D01*
X162970472Y-83658230D01*
X162983130Y-84022983D01*
X162983333Y-84095166D01*
X162990003Y-84467514D01*
X163012096Y-84691745D01*
X163052734Y-84788628D01*
X163088390Y-84793925D01*
X163218821Y-84679951D01*
X163384475Y-84424579D01*
X163573016Y-84048931D01*
X163711212Y-83727675D01*
X163844206Y-83440610D01*
X163958513Y-83263564D01*
X164039811Y-83207349D01*
X164073782Y-83282778D01*
X164052489Y-83469994D01*
X163952750Y-83818185D01*
X163795381Y-84197353D01*
X163600431Y-84574500D01*
X163387946Y-84916626D01*
X163177975Y-85190732D01*
X162990566Y-85363818D01*
X162875404Y-85407497D01*
X162730217Y-85329418D01*
X162621501Y-85118907D01*
X162564736Y-84811557D01*
X162560000Y-84682321D01*
X162551712Y-84488516D01*
X162531386Y-84393463D01*
X162527627Y-84391500D01*
X162455320Y-84446341D01*
X162301664Y-84588242D01*
X162150582Y-84736172D01*
X161847448Y-84978679D01*
X161584833Y-85063317D01*
X161368953Y-84989729D01*
X161220606Y-84789704D01*
X161107628Y-84552908D01*
X160770935Y-84857090D01*
X160537506Y-85050967D01*
X160319283Y-85204795D01*
X160231057Y-85253849D01*
X160068740Y-85360928D01*
X160002769Y-85453266D01*
X159935255Y-85491801D01*
X159758839Y-85444199D01*
X159512000Y-85333679D01*
X159206088Y-85168325D01*
X158841025Y-84947140D01*
X158492819Y-84716303D01*
X158473765Y-84702901D01*
X158180925Y-84499801D01*
X157996118Y-84402563D01*
X157887353Y-84421834D01*
X157822637Y-84568257D01*
X157769979Y-84852477D01*
X157755668Y-84941833D01*
X157686121Y-85231070D01*
X157595196Y-85357902D01*
X157562704Y-85365166D01*
X157498948Y-85334833D01*
X157465005Y-85223097D01*
X157456133Y-84998855D01*
X157463918Y-84717139D01*
X157466451Y-84361566D01*
X157443332Y-84116657D01*
X157400418Y-84013642D01*
X157318216Y-83881059D01*
X157334177Y-83711366D01*
X157437666Y-83598882D01*
X157494295Y-83546192D01*
X157531872Y-83421633D01*
X157553777Y-83198011D01*
X157563391Y-82848137D01*
X157564666Y-82577122D01*
X157567234Y-82152394D01*
X157570465Y-82070324D01*
X157835780Y-82070324D01*
X157854260Y-82205729D01*
X157991023Y-82240052D01*
X158005113Y-82239658D01*
X158109240Y-82245120D01*
X158167221Y-82292028D01*
X158183531Y-82411964D01*
X158162643Y-82636505D01*
X158110808Y-82985812D01*
X158046229Y-83400457D01*
X158495841Y-83155747D01*
X158789716Y-82979509D01*
X159060110Y-82790528D01*
X159186800Y-82685586D01*
X159346373Y-82496315D01*
X159365496Y-82339248D01*
X159235735Y-82194397D01*
X158948657Y-82041770D01*
X158907646Y-82023878D01*
X158543775Y-81903388D01*
X158224439Y-81863905D01*
X157982079Y-81904021D01*
X157849132Y-82022332D01*
X157835780Y-82070324D01*
X157570465Y-82070324D01*
X157578645Y-81862591D01*
X157604458Y-81673333D01*
X157650234Y-81550243D01*
X157721534Y-81458944D01*
X157749964Y-81431464D01*
X157992443Y-81296350D01*
X158212455Y-81258833D01*
X158539152Y-81305133D01*
X158539152Y-81305133D01*
G37*
X158539152Y-81305133D02*
X158926469Y-81425965D01*
X159307124Y-81594229D01*
X159613832Y-81782822D01*
X159701459Y-81858600D01*
X159890574Y-82112912D01*
X159934158Y-82360233D01*
X159827556Y-82608125D01*
X159566111Y-82864150D01*
X159145165Y-83135868D01*
X158805251Y-83313948D01*
X158511634Y-83466709D01*
X158287421Y-83598585D01*
X158167933Y-83688172D01*
X158157333Y-83706578D01*
X158219579Y-83787902D01*
X158384733Y-83944142D01*
X158620420Y-84148372D01*
X158894265Y-84373663D01*
X159173893Y-84593088D01*
X159426929Y-84779719D01*
X159540392Y-84856916D01*
X159713119Y-84953174D01*
X159808652Y-84947921D01*
X159854369Y-84893508D01*
X159896891Y-84715788D01*
X159885700Y-84603870D01*
X159906156Y-84450155D01*
X160046776Y-84248947D01*
X160206723Y-84084039D01*
X160600221Y-83727842D01*
X160959393Y-83444882D01*
X161267260Y-83244773D01*
X161506842Y-83137124D01*
X161661162Y-83131546D01*
X161713333Y-83231212D01*
X161653883Y-83335493D01*
X161495924Y-83515434D01*
X161270040Y-83737116D01*
X161198043Y-83802712D01*
X160950433Y-84035151D01*
X160725686Y-84264476D01*
X160543286Y-84467674D01*
X160422719Y-84621733D01*
X160383469Y-84703641D01*
X160445019Y-84690386D01*
X160447848Y-84688736D01*
X160577196Y-84597712D01*
X160784594Y-84437047D01*
X160963083Y-84292448D01*
X161259031Y-84070376D01*
X161459693Y-83978113D01*
X161577764Y-84015031D01*
X161625939Y-84180502D01*
X161628666Y-84259503D01*
X161649013Y-84468841D01*
X161698701Y-84592924D01*
X161705692Y-84598444D01*
X161812893Y-84626830D01*
X161936361Y-84572175D01*
X162092194Y-84418388D01*
X162296490Y-84149376D01*
X162565345Y-83749049D01*
X162583757Y-83720693D01*
X162747096Y-83492083D01*
X162860579Y-83400394D01*
X162932330Y-83453238D01*
X162970472Y-83658230D01*
X162983130Y-84022983D01*
X162983333Y-84095166D01*
X162990003Y-84467514D01*
X163012096Y-84691745D01*
X163052734Y-84788628D01*
X163088390Y-84793925D01*
X163218821Y-84679951D01*
X163384475Y-84424579D01*
X163573016Y-84048931D01*
X163711212Y-83727675D01*
X163844206Y-83440610D01*
X163958513Y-83263564D01*
X164039811Y-83207349D01*
X164073782Y-83282778D01*
X164052489Y-83469994D01*
X163952750Y-83818185D01*
X163795381Y-84197353D01*
X163600431Y-84574500D01*
X163387946Y-84916626D01*
X163177975Y-85190732D01*
X162990566Y-85363818D01*
X162875404Y-85407497D01*
X162730217Y-85329418D01*
X162621501Y-85118907D01*
X162564736Y-84811557D01*
X162560000Y-84682321D01*
X162551712Y-84488516D01*
X162531386Y-84393463D01*
X162527627Y-84391500D01*
X162455320Y-84446341D01*
X162301664Y-84588242D01*
X162150582Y-84736172D01*
X161847448Y-84978679D01*
X161584833Y-85063317D01*
X161368953Y-84989729D01*
X161220606Y-84789704D01*
X161107628Y-84552908D01*
X160770935Y-84857090D01*
X160537506Y-85050967D01*
X160319283Y-85204795D01*
X160231057Y-85253849D01*
X160068740Y-85360928D01*
X160002769Y-85453266D01*
X159935255Y-85491801D01*
X159758839Y-85444199D01*
X159512000Y-85333679D01*
X159206088Y-85168325D01*
X158841025Y-84947140D01*
X158492819Y-84716303D01*
X158473765Y-84702901D01*
X158180925Y-84499801D01*
X157996118Y-84402563D01*
X157887353Y-84421834D01*
X157822637Y-84568257D01*
X157769979Y-84852477D01*
X157755668Y-84941833D01*
X157686121Y-85231070D01*
X157595196Y-85357902D01*
X157562704Y-85365166D01*
X157498948Y-85334833D01*
X157465005Y-85223097D01*
X157456133Y-84998855D01*
X157463918Y-84717139D01*
X157466451Y-84361566D01*
X157443332Y-84116657D01*
X157400418Y-84013642D01*
X157318216Y-83881059D01*
X157334177Y-83711366D01*
X157437666Y-83598882D01*
X157494295Y-83546192D01*
X157531872Y-83421633D01*
X157553777Y-83198011D01*
X157563391Y-82848137D01*
X157564666Y-82577122D01*
X157567234Y-82152394D01*
X157570465Y-82070324D01*
X157835780Y-82070324D01*
X157854260Y-82205729D01*
X157991023Y-82240052D01*
X158005113Y-82239658D01*
X158109240Y-82245120D01*
X158167221Y-82292028D01*
X158183531Y-82411964D01*
X158162643Y-82636505D01*
X158110808Y-82985812D01*
X158046229Y-83400457D01*
X158495841Y-83155747D01*
X158789716Y-82979509D01*
X159060110Y-82790528D01*
X159186800Y-82685586D01*
X159346373Y-82496315D01*
X159365496Y-82339248D01*
X159235735Y-82194397D01*
X158948657Y-82041770D01*
X158907646Y-82023878D01*
X158543775Y-81903388D01*
X158224439Y-81863905D01*
X157982079Y-81904021D01*
X157849132Y-82022332D01*
X157835780Y-82070324D01*
X157570465Y-82070324D01*
X157578645Y-81862591D01*
X157604458Y-81673333D01*
X157650234Y-81550243D01*
X157721534Y-81458944D01*
X157749964Y-81431464D01*
X157992443Y-81296350D01*
X158212455Y-81258833D01*
X158539152Y-81305133D01*
G36*
X153785747Y-84847272D02*
X153972080Y-84901211D01*
X153991733Y-84916433D01*
X154085386Y-85043698D01*
X154031184Y-85097734D01*
X153845471Y-85087794D01*
X153670476Y-85086868D01*
X153368505Y-85110250D01*
X152979533Y-85153948D01*
X152543535Y-85213968D01*
X152469638Y-85225196D01*
X151857285Y-85317913D01*
X151386742Y-85384292D01*
X151032873Y-85426343D01*
X150770546Y-85446077D01*
X150574625Y-85445503D01*
X150419976Y-85426633D01*
X150304500Y-85398383D01*
X150118869Y-85322482D01*
X150030521Y-85243738D01*
X150029333Y-85235745D01*
X150048100Y-85155249D01*
X150052940Y-85153500D01*
X150140589Y-85142253D01*
X150365204Y-85111363D01*
X150696112Y-85065098D01*
X151102644Y-85007731D01*
X151259440Y-84985490D01*
X151898054Y-84905461D01*
X152493772Y-84851024D01*
X153022813Y-84822779D01*
X153461398Y-84821328D01*
X153785747Y-84847272D01*
X153785747Y-84847272D01*
G37*
X153785747Y-84847272D02*
X153972080Y-84901211D01*
X153991733Y-84916433D01*
X154085386Y-85043698D01*
X154031184Y-85097734D01*
X153845471Y-85087794D01*
X153670476Y-85086868D01*
X153368505Y-85110250D01*
X152979533Y-85153948D01*
X152543535Y-85213968D01*
X152469638Y-85225196D01*
X151857285Y-85317913D01*
X151386742Y-85384292D01*
X151032873Y-85426343D01*
X150770546Y-85446077D01*
X150574625Y-85445503D01*
X150419976Y-85426633D01*
X150304500Y-85398383D01*
X150118869Y-85322482D01*
X150030521Y-85243738D01*
X150029333Y-85235745D01*
X150048100Y-85155249D01*
X150052940Y-85153500D01*
X150140589Y-85142253D01*
X150365204Y-85111363D01*
X150696112Y-85065098D01*
X151102644Y-85007731D01*
X151259440Y-84985490D01*
X151898054Y-84905461D01*
X152493772Y-84851024D01*
X153022813Y-84822779D01*
X153461398Y-84821328D01*
X153785747Y-84847272D01*
G36*
X169360977Y-81190293D02*
X169465576Y-81222202D01*
X169518236Y-81307931D01*
X169533293Y-81490301D01*
X169529312Y-81693108D01*
X169457553Y-82148313D01*
X169278708Y-82682935D01*
X169007652Y-83258919D01*
X168737508Y-83719088D01*
X168555167Y-84050727D01*
X168497163Y-84300291D01*
X168560569Y-84497410D01*
X168650691Y-84598362D01*
X168869035Y-84692471D01*
X169134433Y-84635242D01*
X169432278Y-84433047D01*
X169714333Y-84134461D01*
X169955898Y-83857860D01*
X170129398Y-83729086D01*
X170256705Y-83752491D01*
X170359690Y-83932425D01*
X170460223Y-84273240D01*
X170462770Y-84283365D01*
X170541929Y-84521451D01*
X170630848Y-84679602D01*
X170669896Y-84710557D01*
X170793162Y-84667810D01*
X171008104Y-84495243D01*
X171306970Y-84200105D01*
X171682010Y-83789645D01*
X171803638Y-83650394D01*
X172059191Y-83398920D01*
X172260427Y-83290903D01*
X172397945Y-83327199D01*
X172462343Y-83508669D01*
X172466000Y-83589886D01*
X172431069Y-83878945D01*
X172346259Y-84175030D01*
X172339000Y-84192892D01*
X172257607Y-84397884D01*
X172214210Y-84527042D01*
X172212000Y-84540425D01*
X172267919Y-84509786D01*
X172414858Y-84387945D01*
X172621586Y-84200872D01*
X172631706Y-84191419D01*
X172945425Y-83930541D01*
X173182885Y-83813611D01*
X173356444Y-83840283D01*
X173478460Y-84010213D01*
X173528515Y-84166352D01*
X173598909Y-84355163D01*
X173700719Y-84434660D01*
X173851876Y-84399534D01*
X174070310Y-84244476D01*
X174373952Y-83964176D01*
X174443745Y-83895342D01*
X174783191Y-83571624D01*
X175024943Y-83374160D01*
X175177851Y-83297589D01*
X175250762Y-83336549D01*
X175260000Y-83400832D01*
X175326469Y-83474615D01*
X175534684Y-83478644D01*
X175554967Y-83476395D01*
X175763208Y-83470939D01*
X175875117Y-83543219D01*
X175939286Y-83676969D01*
X175982337Y-83987335D01*
X175940651Y-84164374D01*
X175865022Y-84420354D01*
X175867914Y-84533245D01*
X175928461Y-84523983D01*
X176019105Y-84545170D01*
X176049751Y-84595698D01*
X176028032Y-84741299D01*
X175900593Y-84882770D01*
X175724415Y-84969049D01*
X175627093Y-84974435D01*
X175459218Y-85002796D01*
X175235300Y-85101650D01*
X175175333Y-85136900D01*
X174939152Y-85256614D01*
X174727536Y-85319667D01*
X174690451Y-85322516D01*
X174490320Y-85247979D01*
X174336597Y-85062312D01*
X174266941Y-84823492D01*
X174278613Y-84688450D01*
X174280983Y-84665627D01*
X174753174Y-84665627D01*
X174781475Y-84826914D01*
X174926178Y-84898181D01*
X174957901Y-84899500D01*
X175177777Y-84820304D01*
X175325123Y-84666666D01*
X175493225Y-84389661D01*
X175545589Y-84193986D01*
X175489141Y-84044233D01*
X175454458Y-84005386D01*
X175362570Y-83934812D01*
X175271947Y-83948863D01*
X175139217Y-84065271D01*
X175034722Y-84176981D01*
X174838511Y-84440317D01*
X174753174Y-84665627D01*
X174280983Y-84665627D01*
X174296046Y-84520606D01*
X174227152Y-84494201D01*
X174069690Y-84609517D01*
X173947666Y-84730166D01*
X173715582Y-84925201D01*
X173519482Y-84963854D01*
X173326083Y-84844265D01*
X173191406Y-84687833D01*
X173038174Y-84507372D01*
X172918846Y-84402362D01*
X172890506Y-84391500D01*
X172801001Y-84448589D01*
X172628197Y-84600567D01*
X172404302Y-84818496D01*
X172325131Y-84899500D01*
X172032489Y-85187927D01*
X171827189Y-85351364D01*
X171693005Y-85398790D01*
X171613712Y-85339184D01*
X171598197Y-85301759D01*
X171602754Y-85169344D01*
X171650204Y-84932114D01*
X171715463Y-84692303D01*
X171789516Y-84423933D01*
X171830295Y-84227278D01*
X171830596Y-84151208D01*
X171756870Y-84188287D01*
X171590770Y-84318953D01*
X171361784Y-84519220D01*
X171237510Y-84633664D01*
X170891187Y-84934911D01*
X170625110Y-85105341D01*
X170417841Y-85149543D01*
X170247946Y-85072105D01*
X170094424Y-84878333D01*
X169977536Y-84677418D01*
X169904444Y-84534886D01*
X169898513Y-84519698D01*
X169827008Y-84527512D01*
X169667296Y-84629106D01*
X169462923Y-84794865D01*
X169180532Y-85017290D01*
X168952327Y-85128377D01*
X168771079Y-85153500D01*
X168507810Y-85096962D01*
X168286287Y-84953973D01*
X168159942Y-84764464D01*
X168148000Y-84687833D01*
X168108962Y-84573413D01*
X167991133Y-84607214D01*
X167805882Y-84776173D01*
X167621247Y-84917822D01*
X167444034Y-84972877D01*
X167431290Y-84972035D01*
X167251376Y-85002839D01*
X167020296Y-85103616D01*
X166962666Y-85137379D01*
X166726378Y-85256827D01*
X166514718Y-85319695D01*
X166477785Y-85322516D01*
X166277653Y-85247979D01*
X166123931Y-85062312D01*
X166054274Y-84823492D01*
X166065946Y-84688450D01*
X166069943Y-84665627D01*
X166540508Y-84665627D01*
X166568809Y-84826914D01*
X166713512Y-84898181D01*
X166745234Y-84899500D01*
X166965110Y-84820304D01*
X167112457Y-84666666D01*
X167280558Y-84389661D01*
X167332923Y-84193986D01*
X167276475Y-84044233D01*
X167241791Y-84005386D01*
X167149903Y-83934812D01*
X167059280Y-83948863D01*
X166926550Y-84065271D01*
X166822055Y-84176981D01*
X166625845Y-84440317D01*
X166540508Y-84665627D01*
X166069943Y-84665627D01*
X166091769Y-84541013D01*
X166058811Y-84493047D01*
X165948538Y-84549928D01*
X165742419Y-84717030D01*
X165630238Y-84814833D01*
X165315517Y-85052442D01*
X165065618Y-85144002D01*
X164861829Y-85090758D01*
X164685437Y-84893955D01*
X164675758Y-84878333D01*
X164558261Y-84676977D01*
X164483887Y-84533720D01*
X164477705Y-84518500D01*
X164402826Y-84504393D01*
X164276164Y-84585655D01*
X164147616Y-84684533D01*
X164083155Y-84666351D01*
X164052163Y-84599990D01*
X164076342Y-84441145D01*
X164229017Y-84199078D01*
X164316869Y-84091111D01*
X164554434Y-83835330D01*
X164724390Y-83724401D01*
X164849202Y-83764263D01*
X164951334Y-83960854D01*
X165044103Y-84283365D01*
X165123198Y-84521421D01*
X165211961Y-84679522D01*
X165250920Y-84710454D01*
X165349868Y-84668098D01*
X165540290Y-84526554D01*
X165795255Y-84307693D01*
X166087832Y-84033380D01*
X166103096Y-84018473D01*
X166469274Y-83669200D01*
X166734946Y-83438936D01*
X166911913Y-83319959D01*
X167011980Y-83304549D01*
X167046950Y-83384986D01*
X167047333Y-83400832D01*
X167113802Y-83474615D01*
X167322018Y-83478644D01*
X167342301Y-83476395D01*
X167550542Y-83470939D01*
X167662450Y-83543219D01*
X167726619Y-83676969D01*
X167769670Y-83987335D01*
X167727985Y-84164374D01*
X167653584Y-84414256D01*
X167658381Y-84517555D01*
X167744871Y-84478651D01*
X167848708Y-84376353D01*
X168032408Y-84065195D01*
X168137719Y-83652641D01*
X168199779Y-83378634D01*
X168571333Y-83378634D01*
X168595665Y-83459545D01*
X168670366Y-83389978D01*
X168797990Y-83166591D01*
X168913528Y-82931000D01*
X169069646Y-82577649D01*
X169152672Y-82336346D01*
X169160449Y-82218008D01*
X169090817Y-82233554D01*
X169042612Y-82277857D01*
X168950937Y-82418012D01*
X168832558Y-82656144D01*
X168712983Y-82932669D01*
X168617719Y-83188009D01*
X168572277Y-83362581D01*
X168571333Y-83378634D01*
X168199779Y-83378634D01*
X168233079Y-83231611D01*
X168385649Y-82744736D01*
X168573225Y-82250709D01*
X168773598Y-81808222D01*
X168957233Y-81486626D01*
X169137200Y-81268989D01*
X169297334Y-81189170D01*
X169360977Y-81190293D01*
X169360977Y-81190293D01*
G37*
X169360977Y-81190293D02*
X169465576Y-81222202D01*
X169518236Y-81307931D01*
X169533293Y-81490301D01*
X169529312Y-81693108D01*
X169457553Y-82148313D01*
X169278708Y-82682935D01*
X169007652Y-83258919D01*
X168737508Y-83719088D01*
X168555167Y-84050727D01*
X168497163Y-84300291D01*
X168560569Y-84497410D01*
X168650691Y-84598362D01*
X168869035Y-84692471D01*
X169134433Y-84635242D01*
X169432278Y-84433047D01*
X169714333Y-84134461D01*
X169955898Y-83857860D01*
X170129398Y-83729086D01*
X170256705Y-83752491D01*
X170359690Y-83932425D01*
X170460223Y-84273240D01*
X170462770Y-84283365D01*
X170541929Y-84521451D01*
X170630848Y-84679602D01*
X170669896Y-84710557D01*
X170793162Y-84667810D01*
X171008104Y-84495243D01*
X171306970Y-84200105D01*
X171682010Y-83789645D01*
X171803638Y-83650394D01*
X172059191Y-83398920D01*
X172260427Y-83290903D01*
X172397945Y-83327199D01*
X172462343Y-83508669D01*
X172466000Y-83589886D01*
X172431069Y-83878945D01*
X172346259Y-84175030D01*
X172339000Y-84192892D01*
X172257607Y-84397884D01*
X172214210Y-84527042D01*
X172212000Y-84540425D01*
X172267919Y-84509786D01*
X172414858Y-84387945D01*
X172621586Y-84200872D01*
X172631706Y-84191419D01*
X172945425Y-83930541D01*
X173182885Y-83813611D01*
X173356444Y-83840283D01*
X173478460Y-84010213D01*
X173528515Y-84166352D01*
X173598909Y-84355163D01*
X173700719Y-84434660D01*
X173851876Y-84399534D01*
X174070310Y-84244476D01*
X174373952Y-83964176D01*
X174443745Y-83895342D01*
X174783191Y-83571624D01*
X175024943Y-83374160D01*
X175177851Y-83297589D01*
X175250762Y-83336549D01*
X175260000Y-83400832D01*
X175326469Y-83474615D01*
X175534684Y-83478644D01*
X175554967Y-83476395D01*
X175763208Y-83470939D01*
X175875117Y-83543219D01*
X175939286Y-83676969D01*
X175982337Y-83987335D01*
X175940651Y-84164374D01*
X175865022Y-84420354D01*
X175867914Y-84533245D01*
X175928461Y-84523983D01*
X176019105Y-84545170D01*
X176049751Y-84595698D01*
X176028032Y-84741299D01*
X175900593Y-84882770D01*
X175724415Y-84969049D01*
X175627093Y-84974435D01*
X175459218Y-85002796D01*
X175235300Y-85101650D01*
X175175333Y-85136900D01*
X174939152Y-85256614D01*
X174727536Y-85319667D01*
X174690451Y-85322516D01*
X174490320Y-85247979D01*
X174336597Y-85062312D01*
X174266941Y-84823492D01*
X174278613Y-84688450D01*
X174280983Y-84665627D01*
X174753174Y-84665627D01*
X174781475Y-84826914D01*
X174926178Y-84898181D01*
X174957901Y-84899500D01*
X175177777Y-84820304D01*
X175325123Y-84666666D01*
X175493225Y-84389661D01*
X175545589Y-84193986D01*
X175489141Y-84044233D01*
X175454458Y-84005386D01*
X175362570Y-83934812D01*
X175271947Y-83948863D01*
X175139217Y-84065271D01*
X175034722Y-84176981D01*
X174838511Y-84440317D01*
X174753174Y-84665627D01*
X174280983Y-84665627D01*
X174296046Y-84520606D01*
X174227152Y-84494201D01*
X174069690Y-84609517D01*
X173947666Y-84730166D01*
X173715582Y-84925201D01*
X173519482Y-84963854D01*
X173326083Y-84844265D01*
X173191406Y-84687833D01*
X173038174Y-84507372D01*
X172918846Y-84402362D01*
X172890506Y-84391500D01*
X172801001Y-84448589D01*
X172628197Y-84600567D01*
X172404302Y-84818496D01*
X172325131Y-84899500D01*
X172032489Y-85187927D01*
X171827189Y-85351364D01*
X171693005Y-85398790D01*
X171613712Y-85339184D01*
X171598197Y-85301759D01*
X171602754Y-85169344D01*
X171650204Y-84932114D01*
X171715463Y-84692303D01*
X171789516Y-84423933D01*
X171830295Y-84227278D01*
X171830596Y-84151208D01*
X171756870Y-84188287D01*
X171590770Y-84318953D01*
X171361784Y-84519220D01*
X171237510Y-84633664D01*
X170891187Y-84934911D01*
X170625110Y-85105341D01*
X170417841Y-85149543D01*
X170247946Y-85072105D01*
X170094424Y-84878333D01*
X169977536Y-84677418D01*
X169904444Y-84534886D01*
X169898513Y-84519698D01*
X169827008Y-84527512D01*
X169667296Y-84629106D01*
X169462923Y-84794865D01*
X169180532Y-85017290D01*
X168952327Y-85128377D01*
X168771079Y-85153500D01*
X168507810Y-85096962D01*
X168286287Y-84953973D01*
X168159942Y-84764464D01*
X168148000Y-84687833D01*
X168108962Y-84573413D01*
X167991133Y-84607214D01*
X167805882Y-84776173D01*
X167621247Y-84917822D01*
X167444034Y-84972877D01*
X167431290Y-84972035D01*
X167251376Y-85002839D01*
X167020296Y-85103616D01*
X166962666Y-85137379D01*
X166726378Y-85256827D01*
X166514718Y-85319695D01*
X166477785Y-85322516D01*
X166277653Y-85247979D01*
X166123931Y-85062312D01*
X166054274Y-84823492D01*
X166065946Y-84688450D01*
X166069943Y-84665627D01*
X166540508Y-84665627D01*
X166568809Y-84826914D01*
X166713512Y-84898181D01*
X166745234Y-84899500D01*
X166965110Y-84820304D01*
X167112457Y-84666666D01*
X167280558Y-84389661D01*
X167332923Y-84193986D01*
X167276475Y-84044233D01*
X167241791Y-84005386D01*
X167149903Y-83934812D01*
X167059280Y-83948863D01*
X166926550Y-84065271D01*
X166822055Y-84176981D01*
X166625845Y-84440317D01*
X166540508Y-84665627D01*
X166069943Y-84665627D01*
X166091769Y-84541013D01*
X166058811Y-84493047D01*
X165948538Y-84549928D01*
X165742419Y-84717030D01*
X165630238Y-84814833D01*
X165315517Y-85052442D01*
X165065618Y-85144002D01*
X164861829Y-85090758D01*
X164685437Y-84893955D01*
X164675758Y-84878333D01*
X164558261Y-84676977D01*
X164483887Y-84533720D01*
X164477705Y-84518500D01*
X164402826Y-84504393D01*
X164276164Y-84585655D01*
X164147616Y-84684533D01*
X164083155Y-84666351D01*
X164052163Y-84599990D01*
X164076342Y-84441145D01*
X164229017Y-84199078D01*
X164316869Y-84091111D01*
X164554434Y-83835330D01*
X164724390Y-83724401D01*
X164849202Y-83764263D01*
X164951334Y-83960854D01*
X165044103Y-84283365D01*
X165123198Y-84521421D01*
X165211961Y-84679522D01*
X165250920Y-84710454D01*
X165349868Y-84668098D01*
X165540290Y-84526554D01*
X165795255Y-84307693D01*
X166087832Y-84033380D01*
X166103096Y-84018473D01*
X166469274Y-83669200D01*
X166734946Y-83438936D01*
X166911913Y-83319959D01*
X167011980Y-83304549D01*
X167046950Y-83384986D01*
X167047333Y-83400832D01*
X167113802Y-83474615D01*
X167322018Y-83478644D01*
X167342301Y-83476395D01*
X167550542Y-83470939D01*
X167662450Y-83543219D01*
X167726619Y-83676969D01*
X167769670Y-83987335D01*
X167727985Y-84164374D01*
X167653584Y-84414256D01*
X167658381Y-84517555D01*
X167744871Y-84478651D01*
X167848708Y-84376353D01*
X168032408Y-84065195D01*
X168137719Y-83652641D01*
X168199779Y-83378634D01*
X168571333Y-83378634D01*
X168595665Y-83459545D01*
X168670366Y-83389978D01*
X168797990Y-83166591D01*
X168913528Y-82931000D01*
X169069646Y-82577649D01*
X169152672Y-82336346D01*
X169160449Y-82218008D01*
X169090817Y-82233554D01*
X169042612Y-82277857D01*
X168950937Y-82418012D01*
X168832558Y-82656144D01*
X168712983Y-82932669D01*
X168617719Y-83188009D01*
X168572277Y-83362581D01*
X168571333Y-83378634D01*
X168199779Y-83378634D01*
X168233079Y-83231611D01*
X168385649Y-82744736D01*
X168573225Y-82250709D01*
X168773598Y-81808222D01*
X168957233Y-81486626D01*
X169137200Y-81268989D01*
X169297334Y-81189170D01*
X169360977Y-81190293D01*
G36*
X151338950Y-81893833D02*
X151146867Y-82072199D01*
X150977803Y-82270678D01*
X150817340Y-82521208D01*
X150800408Y-82553366D01*
X150646031Y-82856166D01*
X150952713Y-82609710D01*
X151211585Y-82442101D01*
X151482923Y-82324925D01*
X151554531Y-82306694D01*
X151849666Y-82250134D01*
X151450611Y-82605607D01*
X151096419Y-83004699D01*
X150786800Y-83509561D01*
X150556252Y-84056931D01*
X150463082Y-84416577D01*
X150398667Y-84715601D01*
X150343278Y-84849536D01*
X150292497Y-84822093D01*
X150241904Y-84636980D01*
X150236149Y-84607086D01*
X150209574Y-84300060D01*
X150227052Y-83995383D01*
X150227235Y-83994255D01*
X150276423Y-83691140D01*
X150075019Y-83880350D01*
X149893284Y-84100054D01*
X149771869Y-84315196D01*
X149663635Y-84511774D01*
X149579028Y-84541949D01*
X149529491Y-84408212D01*
X149521333Y-84260651D01*
X149593768Y-83934620D01*
X149725095Y-83756707D01*
X149897405Y-83527115D01*
X149898705Y-83524412D01*
X150290601Y-83524412D01*
X150321212Y-83519021D01*
X150414396Y-83361000D01*
X150493436Y-83206166D01*
X150573758Y-83030899D01*
X150571609Y-82987761D01*
X150513290Y-83036833D01*
X150389274Y-83218507D01*
X150324235Y-83375500D01*
X150290601Y-83524412D01*
X149898705Y-83524412D01*
X150024615Y-83262794D01*
X150137754Y-83019359D01*
X150280264Y-82828100D01*
X150286877Y-82821959D01*
X150419337Y-82640126D01*
X150528315Y-82389301D01*
X150540566Y-82347494D01*
X150684607Y-82047182D01*
X150909794Y-81886150D01*
X151154176Y-81867350D01*
X151338950Y-81893833D01*
X151338950Y-81893833D01*
G37*
X151338950Y-81893833D02*
X151146867Y-82072199D01*
X150977803Y-82270678D01*
X150817340Y-82521208D01*
X150800408Y-82553366D01*
X150646031Y-82856166D01*
X150952713Y-82609710D01*
X151211585Y-82442101D01*
X151482923Y-82324925D01*
X151554531Y-82306694D01*
X151849666Y-82250134D01*
X151450611Y-82605607D01*
X151096419Y-83004699D01*
X150786800Y-83509561D01*
X150556252Y-84056931D01*
X150463082Y-84416577D01*
X150398667Y-84715601D01*
X150343278Y-84849536D01*
X150292497Y-84822093D01*
X150241904Y-84636980D01*
X150236149Y-84607086D01*
X150209574Y-84300060D01*
X150227052Y-83995383D01*
X150227235Y-83994255D01*
X150276423Y-83691140D01*
X150075019Y-83880350D01*
X149893284Y-84100054D01*
X149771869Y-84315196D01*
X149663635Y-84511774D01*
X149579028Y-84541949D01*
X149529491Y-84408212D01*
X149521333Y-84260651D01*
X149593768Y-83934620D01*
X149725095Y-83756707D01*
X149897405Y-83527115D01*
X149898705Y-83524412D01*
X150290601Y-83524412D01*
X150321212Y-83519021D01*
X150414396Y-83361000D01*
X150493436Y-83206166D01*
X150573758Y-83030899D01*
X150571609Y-82987761D01*
X150513290Y-83036833D01*
X150389274Y-83218507D01*
X150324235Y-83375500D01*
X150290601Y-83524412D01*
X149898705Y-83524412D01*
X150024615Y-83262794D01*
X150137754Y-83019359D01*
X150280264Y-82828100D01*
X150286877Y-82821959D01*
X150419337Y-82640126D01*
X150528315Y-82389301D01*
X150540566Y-82347494D01*
X150684607Y-82047182D01*
X150909794Y-81886150D01*
X151154176Y-81867350D01*
X151338950Y-81893833D01*
G36*
X155957645Y-82309306D02*
X155880482Y-82463849D01*
X155682419Y-82725610D01*
X155532744Y-82901497D01*
X155292550Y-83213820D01*
X155035060Y-83608412D01*
X154807861Y-84011132D01*
X154763492Y-84100004D01*
X154610174Y-84409565D01*
X154483681Y-84651585D01*
X154401887Y-84792537D01*
X154382414Y-84814833D01*
X154361369Y-84739356D01*
X154349941Y-84549561D01*
X154349192Y-84455000D01*
X154426303Y-83978588D01*
X154636365Y-83483764D01*
X154954492Y-83013442D01*
X155355799Y-82610542D01*
X155469427Y-82523044D01*
X155751547Y-82335498D01*
X155914476Y-82265387D01*
X155957645Y-82309306D01*
X155957645Y-82309306D01*
G37*
X155957645Y-82309306D02*
X155880482Y-82463849D01*
X155682419Y-82725610D01*
X155532744Y-82901497D01*
X155292550Y-83213820D01*
X155035060Y-83608412D01*
X154807861Y-84011132D01*
X154763492Y-84100004D01*
X154610174Y-84409565D01*
X154483681Y-84651585D01*
X154401887Y-84792537D01*
X154382414Y-84814833D01*
X154361369Y-84739356D01*
X154349941Y-84549561D01*
X154349192Y-84455000D01*
X154426303Y-83978588D01*
X154636365Y-83483764D01*
X154954492Y-83013442D01*
X155355799Y-82610542D01*
X155469427Y-82523044D01*
X155751547Y-82335498D01*
X155914476Y-82265387D01*
X155957645Y-82309306D01*
G36*
X165354000Y-82184654D02*
X165315724Y-82363409D01*
X165225511Y-82580596D01*
X165120283Y-82755081D01*
X165073536Y-82800980D01*
X164887727Y-82860927D01*
X164703963Y-82844477D01*
X164648444Y-82811055D01*
X164598120Y-82718484D01*
X164638091Y-82594821D01*
X164783177Y-82399541D01*
X164811192Y-82365996D01*
X164984366Y-82208742D01*
X165162628Y-82116841D01*
X165300854Y-82105369D01*
X165354000Y-82184654D01*
X165354000Y-82184654D01*
G37*
X165354000Y-82184654D02*
X165315724Y-82363409D01*
X165225511Y-82580596D01*
X165120283Y-82755081D01*
X165073536Y-82800980D01*
X164887727Y-82860927D01*
X164703963Y-82844477D01*
X164648444Y-82811055D01*
X164598120Y-82718484D01*
X164638091Y-82594821D01*
X164783177Y-82399541D01*
X164811192Y-82365996D01*
X164984366Y-82208742D01*
X165162628Y-82116841D01*
X165300854Y-82105369D01*
X165354000Y-82184654D01*
G36*
X170772666Y-82184654D02*
X170734390Y-82363409D01*
X170644178Y-82580596D01*
X170538950Y-82755081D01*
X170492203Y-82800980D01*
X170306394Y-82860927D01*
X170122630Y-82844477D01*
X170067111Y-82811055D01*
X170016787Y-82718484D01*
X170056758Y-82594821D01*
X170201844Y-82399541D01*
X170229859Y-82365996D01*
X170403033Y-82208742D01*
X170581295Y-82116841D01*
X170719521Y-82105369D01*
X170772666Y-82184654D01*
X170772666Y-82184654D01*
G37*
X170772666Y-82184654D02*
X170734390Y-82363409D01*
X170644178Y-82580596D01*
X170538950Y-82755081D01*
X170492203Y-82800980D01*
X170306394Y-82860927D01*
X170122630Y-82844477D01*
X170067111Y-82811055D01*
X170016787Y-82718484D01*
X170056758Y-82594821D01*
X170201844Y-82399541D01*
X170229859Y-82365996D01*
X170403033Y-82208742D01*
X170581295Y-82116841D01*
X170719521Y-82105369D01*
X170772666Y-82184654D01*
G36*
X154748674Y-81362572D02*
X155102530Y-81413960D01*
X155370134Y-81503783D01*
X155565989Y-81625731D01*
X155808182Y-81818849D01*
X154971924Y-81706680D01*
X154159949Y-81638525D01*
X153422869Y-81670358D01*
X152696096Y-81806151D01*
X152501838Y-81858695D01*
X152165502Y-81952977D01*
X151959670Y-82002634D01*
X151852592Y-82011491D01*
X151812520Y-81983375D01*
X151807333Y-81942393D01*
X151877541Y-81867193D01*
X152060470Y-81749322D01*
X152283937Y-81630773D01*
X152532872Y-81520347D01*
X152773045Y-81446894D01*
X153055155Y-81400538D01*
X153429899Y-81371405D01*
X153674335Y-81359942D01*
X154281598Y-81345829D01*
X154748674Y-81362572D01*
X154748674Y-81362572D01*
G37*
X154748674Y-81362572D02*
X155102530Y-81413960D01*
X155370134Y-81503783D01*
X155565989Y-81625731D01*
X155808182Y-81818849D01*
X154971924Y-81706680D01*
X154159949Y-81638525D01*
X153422869Y-81670358D01*
X152696096Y-81806151D01*
X152501838Y-81858695D01*
X152165502Y-81952977D01*
X151959670Y-82002634D01*
X151852592Y-82011491D01*
X151812520Y-81983375D01*
X151807333Y-81942393D01*
X151877541Y-81867193D01*
X152060470Y-81749322D01*
X152283937Y-81630773D01*
X152532872Y-81520347D01*
X152773045Y-81446894D01*
X153055155Y-81400538D01*
X153429899Y-81371405D01*
X153674335Y-81359942D01*
X154281598Y-81345829D01*
X154748674Y-81362572D01*
G36*
X156092023Y-80493020D02*
X156258583Y-80535102D01*
X156368338Y-80576945D01*
X156540854Y-80666405D01*
X156573222Y-80748998D01*
X156538312Y-80805643D01*
X156364035Y-80885777D01*
X156167406Y-80872198D01*
X155960070Y-80864449D01*
X155644125Y-80888206D01*
X155276314Y-80938488D01*
X155141964Y-80962157D01*
X154718092Y-81033317D01*
X154276606Y-81093947D01*
X153900634Y-81132877D01*
X153839333Y-81137156D01*
X153260219Y-81189328D01*
X152813298Y-81271001D01*
X152462698Y-81390989D01*
X152197685Y-81540518D01*
X151946169Y-81685116D01*
X151730316Y-81760010D01*
X151588349Y-81755891D01*
X151553333Y-81697435D01*
X151612160Y-81601763D01*
X151756698Y-81456837D01*
X151786166Y-81431392D01*
X151988506Y-81259734D01*
X152158099Y-81114646D01*
X152163504Y-81109982D01*
X152353443Y-81004682D01*
X152653305Y-80897942D01*
X153004454Y-80804511D01*
X153348256Y-80739136D01*
X153626075Y-80716567D01*
X153703860Y-80722549D01*
X153899548Y-80726439D01*
X154210645Y-80702834D01*
X154586305Y-80656391D01*
X154813000Y-80620950D01*
X155294598Y-80542550D01*
X155644993Y-80495755D01*
X155899147Y-80479575D01*
X156092023Y-80493020D01*
X156092023Y-80493020D01*
G37*
X156092023Y-80493020D02*
X156258583Y-80535102D01*
X156368338Y-80576945D01*
X156540854Y-80666405D01*
X156573222Y-80748998D01*
X156538312Y-80805643D01*
X156364035Y-80885777D01*
X156167406Y-80872198D01*
X155960070Y-80864449D01*
X155644125Y-80888206D01*
X155276314Y-80938488D01*
X155141964Y-80962157D01*
X154718092Y-81033317D01*
X154276606Y-81093947D01*
X153900634Y-81132877D01*
X153839333Y-81137156D01*
X153260219Y-81189328D01*
X152813298Y-81271001D01*
X152462698Y-81390989D01*
X152197685Y-81540518D01*
X151946169Y-81685116D01*
X151730316Y-81760010D01*
X151588349Y-81755891D01*
X151553333Y-81697435D01*
X151612160Y-81601763D01*
X151756698Y-81456837D01*
X151786166Y-81431392D01*
X151988506Y-81259734D01*
X152158099Y-81114646D01*
X152163504Y-81109982D01*
X152353443Y-81004682D01*
X152653305Y-80897942D01*
X153004454Y-80804511D01*
X153348256Y-80739136D01*
X153626075Y-80716567D01*
X153703860Y-80722549D01*
X153899548Y-80726439D01*
X154210645Y-80702834D01*
X154586305Y-80656391D01*
X154813000Y-80620950D01*
X155294598Y-80542550D01*
X155644993Y-80495755D01*
X155899147Y-80479575D01*
X156092023Y-80493020D01*
G36*
X159745124Y-98876420D02*
X159779216Y-98932786D01*
X159814718Y-99016472D01*
X159845618Y-99112019D01*
X159865905Y-99203968D01*
X159870547Y-99253980D01*
X159868767Y-99339961D01*
X159853170Y-99399653D01*
X159813117Y-99449374D01*
X159737965Y-99505446D01*
X159683084Y-99541494D01*
X159603632Y-99597086D01*
X159549687Y-99642696D01*
X159534412Y-99664204D01*
X159561401Y-99697376D01*
X159631243Y-99730385D01*
X159727252Y-99757893D01*
X159832739Y-99774562D01*
X159887537Y-99777176D01*
X159994229Y-99767032D01*
X160105508Y-99732203D01*
X160236821Y-99669229D01*
X160351396Y-99612067D01*
X160435808Y-99581638D01*
X160510206Y-99572415D01*
X160575028Y-99576475D01*
X160688320Y-99603928D01*
X160757116Y-99651042D01*
X160830373Y-99723620D01*
X160912197Y-99757228D01*
X161018562Y-99755497D01*
X161121445Y-99733862D01*
X161350739Y-99692828D01*
X161551209Y-99696807D01*
X161733896Y-99746286D01*
X161771085Y-99762527D01*
X161861436Y-99802607D01*
X161930483Y-99829622D01*
X161957781Y-99836941D01*
X161993282Y-99817958D01*
X162054405Y-99769468D01*
X162095510Y-99732353D01*
X162171865Y-99671472D01*
X162241897Y-99633763D01*
X162269160Y-99627765D01*
X162326910Y-99642696D01*
X162414149Y-99681541D01*
X162497338Y-99727369D01*
X162591529Y-99782472D01*
X162670677Y-99825927D01*
X162712167Y-99845938D01*
X162766518Y-99837606D01*
X162818533Y-99772673D01*
X162866004Y-99654306D01*
X162879955Y-99605353D01*
X162905261Y-99528507D01*
X162929905Y-99483358D01*
X162938061Y-99478353D01*
X162959715Y-99504398D01*
X162989808Y-99571619D01*
X163012803Y-99637638D01*
X163042569Y-99777874D01*
X163028869Y-99884793D01*
X162968629Y-99969128D01*
X162904392Y-100016110D01*
X162811381Y-100054502D01*
X162698436Y-100075549D01*
X162583227Y-100079173D01*
X162483425Y-100065299D01*
X162416698Y-100033851D01*
X162404201Y-100018259D01*
X162343965Y-99953511D01*
X162261913Y-99944110D01*
X162157628Y-99990027D01*
X162143121Y-99999578D01*
X162010047Y-100060600D01*
X161873710Y-100071017D01*
X161805471Y-100054824D01*
X161754663Y-100033608D01*
X161671163Y-99996354D01*
X161604243Y-99965592D01*
X161447839Y-99892818D01*
X161222910Y-99954527D01*
X161041703Y-99998245D01*
X160904224Y-100015759D01*
X160800241Y-100006552D01*
X160719518Y-99970107D01*
X160669941Y-99926588D01*
X160602430Y-99869306D01*
X160538957Y-99838589D01*
X160525917Y-99836941D01*
X160471357Y-99849437D01*
X160381031Y-99882552D01*
X160272403Y-99929729D01*
X160247396Y-99941529D01*
X160049865Y-100018058D01*
X159868548Y-100045821D01*
X159686567Y-100025818D01*
X159547323Y-99983027D01*
X159447295Y-99940825D01*
X159385615Y-99897196D01*
X159342826Y-99835529D01*
X159321215Y-99789987D01*
X159282367Y-99671771D01*
X159288551Y-99579125D01*
X159344267Y-99499053D01*
X159448638Y-99421881D01*
X159571939Y-99323499D01*
X159647740Y-99205094D01*
X159684135Y-99052516D01*
X159688304Y-99002809D01*
X159697826Y-98921741D01*
X159712754Y-98869943D01*
X159718452Y-98862832D01*
X159745124Y-98876420D01*
X159745124Y-98876420D01*
G37*
X159745124Y-98876420D02*
X159779216Y-98932786D01*
X159814718Y-99016472D01*
X159845618Y-99112019D01*
X159865905Y-99203968D01*
X159870547Y-99253980D01*
X159868767Y-99339961D01*
X159853170Y-99399653D01*
X159813117Y-99449374D01*
X159737965Y-99505446D01*
X159683084Y-99541494D01*
X159603632Y-99597086D01*
X159549687Y-99642696D01*
X159534412Y-99664204D01*
X159561401Y-99697376D01*
X159631243Y-99730385D01*
X159727252Y-99757893D01*
X159832739Y-99774562D01*
X159887537Y-99777176D01*
X159994229Y-99767032D01*
X160105508Y-99732203D01*
X160236821Y-99669229D01*
X160351396Y-99612067D01*
X160435808Y-99581638D01*
X160510206Y-99572415D01*
X160575028Y-99576475D01*
X160688320Y-99603928D01*
X160757116Y-99651042D01*
X160830373Y-99723620D01*
X160912197Y-99757228D01*
X161018562Y-99755497D01*
X161121445Y-99733862D01*
X161350739Y-99692828D01*
X161551209Y-99696807D01*
X161733896Y-99746286D01*
X161771085Y-99762527D01*
X161861436Y-99802607D01*
X161930483Y-99829622D01*
X161957781Y-99836941D01*
X161993282Y-99817958D01*
X162054405Y-99769468D01*
X162095510Y-99732353D01*
X162171865Y-99671472D01*
X162241897Y-99633763D01*
X162269160Y-99627765D01*
X162326910Y-99642696D01*
X162414149Y-99681541D01*
X162497338Y-99727369D01*
X162591529Y-99782472D01*
X162670677Y-99825927D01*
X162712167Y-99845938D01*
X162766518Y-99837606D01*
X162818533Y-99772673D01*
X162866004Y-99654306D01*
X162879955Y-99605353D01*
X162905261Y-99528507D01*
X162929905Y-99483358D01*
X162938061Y-99478353D01*
X162959715Y-99504398D01*
X162989808Y-99571619D01*
X163012803Y-99637638D01*
X163042569Y-99777874D01*
X163028869Y-99884793D01*
X162968629Y-99969128D01*
X162904392Y-100016110D01*
X162811381Y-100054502D01*
X162698436Y-100075549D01*
X162583227Y-100079173D01*
X162483425Y-100065299D01*
X162416698Y-100033851D01*
X162404201Y-100018259D01*
X162343965Y-99953511D01*
X162261913Y-99944110D01*
X162157628Y-99990027D01*
X162143121Y-99999578D01*
X162010047Y-100060600D01*
X161873710Y-100071017D01*
X161805471Y-100054824D01*
X161754663Y-100033608D01*
X161671163Y-99996354D01*
X161604243Y-99965592D01*
X161447839Y-99892818D01*
X161222910Y-99954527D01*
X161041703Y-99998245D01*
X160904224Y-100015759D01*
X160800241Y-100006552D01*
X160719518Y-99970107D01*
X160669941Y-99926588D01*
X160602430Y-99869306D01*
X160538957Y-99838589D01*
X160525917Y-99836941D01*
X160471357Y-99849437D01*
X160381031Y-99882552D01*
X160272403Y-99929729D01*
X160247396Y-99941529D01*
X160049865Y-100018058D01*
X159868548Y-100045821D01*
X159686567Y-100025818D01*
X159547323Y-99983027D01*
X159447295Y-99940825D01*
X159385615Y-99897196D01*
X159342826Y-99835529D01*
X159321215Y-99789987D01*
X159282367Y-99671771D01*
X159288551Y-99579125D01*
X159344267Y-99499053D01*
X159448638Y-99421881D01*
X159571939Y-99323499D01*
X159647740Y-99205094D01*
X159684135Y-99052516D01*
X159688304Y-99002809D01*
X159697826Y-98921741D01*
X159712754Y-98869943D01*
X159718452Y-98862832D01*
X159745124Y-98876420D01*
G36*
X164484350Y-96282681D02*
X164517066Y-96337739D01*
X164524765Y-96415314D01*
X164535123Y-96506622D01*
X164560868Y-96612953D01*
X164569589Y-96639529D01*
X164592704Y-96737364D01*
X164608740Y-96868327D01*
X164614412Y-96999747D01*
X164612882Y-97119267D01*
X164604759Y-97197271D01*
X164584746Y-97251996D01*
X164547544Y-97301677D01*
X164517294Y-97334024D01*
X164440666Y-97408032D01*
X164366527Y-97470796D01*
X164346971Y-97485088D01*
X164273764Y-97535050D01*
X164337381Y-97621096D01*
X164387900Y-97712935D01*
X164421146Y-97814571D01*
X164421465Y-97816239D01*
X164428950Y-97882704D01*
X164415985Y-97936193D01*
X164374244Y-97996679D01*
X164321530Y-98055957D01*
X164222487Y-98171636D01*
X164158992Y-98273094D01*
X164123543Y-98380291D01*
X164108640Y-98513192D01*
X164106412Y-98628379D01*
X164104786Y-98757245D01*
X164097414Y-98843056D01*
X164080557Y-98902489D01*
X164050479Y-98952219D01*
X164027363Y-98980980D01*
X163896745Y-99110426D01*
X163761505Y-99188677D01*
X163633160Y-99220887D01*
X163517282Y-99249394D01*
X163424980Y-99309436D01*
X163388956Y-99344171D01*
X163305363Y-99419842D01*
X163245283Y-99447434D01*
X163202231Y-99430800D01*
X163197178Y-99389414D01*
X163214155Y-99314407D01*
X163246378Y-99224518D01*
X163287064Y-99138488D01*
X163329431Y-99075057D01*
X163332017Y-99072230D01*
X163407068Y-99014455D01*
X163499601Y-98969634D01*
X163505689Y-98967615D01*
X163604425Y-98921665D01*
X163693614Y-98858339D01*
X163695530Y-98856569D01*
X163734322Y-98816804D01*
X163758492Y-98775852D01*
X163771484Y-98718937D01*
X163776741Y-98631281D01*
X163777706Y-98503914D01*
X163777706Y-98227951D01*
X163896465Y-98126298D01*
X163975140Y-98046644D01*
X164038156Y-97961531D01*
X164056245Y-97927083D01*
X164079784Y-97855667D01*
X164075011Y-97796112D01*
X164042075Y-97721266D01*
X164002616Y-97630871D01*
X163991845Y-97556293D01*
X164014030Y-97484218D01*
X164073440Y-97401332D01*
X164174342Y-97294322D01*
X164181118Y-97287534D01*
X164266732Y-97197776D01*
X164333079Y-97120332D01*
X164370501Y-97066860D01*
X164375353Y-97053083D01*
X164367522Y-97005857D01*
X164346915Y-96919432D01*
X164317865Y-96811873D01*
X164315589Y-96803882D01*
X164275690Y-96650390D01*
X164259024Y-96539266D01*
X164266533Y-96457427D01*
X164299161Y-96391788D01*
X164349218Y-96337205D01*
X164427754Y-96282215D01*
X164484350Y-96282681D01*
X164484350Y-96282681D01*
G37*
X164484350Y-96282681D02*
X164517066Y-96337739D01*
X164524765Y-96415314D01*
X164535123Y-96506622D01*
X164560868Y-96612953D01*
X164569589Y-96639529D01*
X164592704Y-96737364D01*
X164608740Y-96868327D01*
X164614412Y-96999747D01*
X164612882Y-97119267D01*
X164604759Y-97197271D01*
X164584746Y-97251996D01*
X164547544Y-97301677D01*
X164517294Y-97334024D01*
X164440666Y-97408032D01*
X164366527Y-97470796D01*
X164346971Y-97485088D01*
X164273764Y-97535050D01*
X164337381Y-97621096D01*
X164387900Y-97712935D01*
X164421146Y-97814571D01*
X164421465Y-97816239D01*
X164428950Y-97882704D01*
X164415985Y-97936193D01*
X164374244Y-97996679D01*
X164321530Y-98055957D01*
X164222487Y-98171636D01*
X164158992Y-98273094D01*
X164123543Y-98380291D01*
X164108640Y-98513192D01*
X164106412Y-98628379D01*
X164104786Y-98757245D01*
X164097414Y-98843056D01*
X164080557Y-98902489D01*
X164050479Y-98952219D01*
X164027363Y-98980980D01*
X163896745Y-99110426D01*
X163761505Y-99188677D01*
X163633160Y-99220887D01*
X163517282Y-99249394D01*
X163424980Y-99309436D01*
X163388956Y-99344171D01*
X163305363Y-99419842D01*
X163245283Y-99447434D01*
X163202231Y-99430800D01*
X163197178Y-99389414D01*
X163214155Y-99314407D01*
X163246378Y-99224518D01*
X163287064Y-99138488D01*
X163329431Y-99075057D01*
X163332017Y-99072230D01*
X163407068Y-99014455D01*
X163499601Y-98969634D01*
X163505689Y-98967615D01*
X163604425Y-98921665D01*
X163693614Y-98858339D01*
X163695530Y-98856569D01*
X163734322Y-98816804D01*
X163758492Y-98775852D01*
X163771484Y-98718937D01*
X163776741Y-98631281D01*
X163777706Y-98503914D01*
X163777706Y-98227951D01*
X163896465Y-98126298D01*
X163975140Y-98046644D01*
X164038156Y-97961531D01*
X164056245Y-97927083D01*
X164079784Y-97855667D01*
X164075011Y-97796112D01*
X164042075Y-97721266D01*
X164002616Y-97630871D01*
X163991845Y-97556293D01*
X164014030Y-97484218D01*
X164073440Y-97401332D01*
X164174342Y-97294322D01*
X164181118Y-97287534D01*
X164266732Y-97197776D01*
X164333079Y-97120332D01*
X164370501Y-97066860D01*
X164375353Y-97053083D01*
X164367522Y-97005857D01*
X164346915Y-96919432D01*
X164317865Y-96811873D01*
X164315589Y-96803882D01*
X164275690Y-96650390D01*
X164259024Y-96539266D01*
X164266533Y-96457427D01*
X164299161Y-96391788D01*
X164349218Y-96337205D01*
X164427754Y-96282215D01*
X164484350Y-96282681D01*
G36*
X162085610Y-98943383D02*
X162157313Y-98945173D01*
X162310021Y-98951491D01*
X162416228Y-98960853D01*
X162489194Y-98975596D01*
X162542181Y-98998057D01*
X162572857Y-99018401D01*
X162640173Y-99076813D01*
X162658167Y-99117255D01*
X162624319Y-99141926D01*
X162536109Y-99153025D01*
X162418059Y-99153465D01*
X162300711Y-99156379D01*
X162140679Y-99168199D01*
X161954125Y-99187378D01*
X161757208Y-99212374D01*
X161671000Y-99224883D01*
X161349598Y-99272869D01*
X161081092Y-99311362D01*
X160859465Y-99340908D01*
X160678699Y-99362057D01*
X160532775Y-99375355D01*
X160415674Y-99381352D01*
X160321380Y-99380596D01*
X160243873Y-99373634D01*
X160177135Y-99361015D01*
X160176883Y-99360954D01*
X160065552Y-99324451D01*
X159986761Y-99279482D01*
X159953160Y-99233525D01*
X159952765Y-99228476D01*
X159973645Y-99211527D01*
X160038674Y-99191469D01*
X160151435Y-99167568D01*
X160315511Y-99139089D01*
X160534484Y-99105299D01*
X160602706Y-99095283D01*
X160908842Y-99051259D01*
X161164142Y-99015964D01*
X161376770Y-98988612D01*
X161554891Y-98968413D01*
X161706670Y-98954579D01*
X161840273Y-98946322D01*
X161963865Y-98942852D01*
X162085610Y-98943383D01*
X162085610Y-98943383D01*
G37*
X162085610Y-98943383D02*
X162157313Y-98945173D01*
X162310021Y-98951491D01*
X162416228Y-98960853D01*
X162489194Y-98975596D01*
X162542181Y-98998057D01*
X162572857Y-99018401D01*
X162640173Y-99076813D01*
X162658167Y-99117255D01*
X162624319Y-99141926D01*
X162536109Y-99153025D01*
X162418059Y-99153465D01*
X162300711Y-99156379D01*
X162140679Y-99168199D01*
X161954125Y-99187378D01*
X161757208Y-99212374D01*
X161671000Y-99224883D01*
X161349598Y-99272869D01*
X161081092Y-99311362D01*
X160859465Y-99340908D01*
X160678699Y-99362057D01*
X160532775Y-99375355D01*
X160415674Y-99381352D01*
X160321380Y-99380596D01*
X160243873Y-99373634D01*
X160177135Y-99361015D01*
X160176883Y-99360954D01*
X160065552Y-99324451D01*
X159986761Y-99279482D01*
X159953160Y-99233525D01*
X159952765Y-99228476D01*
X159973645Y-99211527D01*
X160038674Y-99191469D01*
X160151435Y-99167568D01*
X160315511Y-99139089D01*
X160534484Y-99105299D01*
X160602706Y-99095283D01*
X160908842Y-99051259D01*
X161164142Y-99015964D01*
X161376770Y-98988612D01*
X161554891Y-98968413D01*
X161706670Y-98954579D01*
X161840273Y-98946322D01*
X161963865Y-98942852D01*
X162085610Y-98943383D01*
G36*
X161107231Y-97266230D02*
X161081534Y-97316697D01*
X161011454Y-97399868D01*
X160896443Y-97518483D01*
X160871560Y-97543183D01*
X160710949Y-97713972D01*
X160579448Y-97883875D01*
X160471677Y-98064030D01*
X160382255Y-98265574D01*
X160305799Y-98499646D01*
X160236930Y-98777384D01*
X160207286Y-98918059D01*
X160186276Y-98977597D01*
X160161941Y-99000235D01*
X160134164Y-98974836D01*
X160110402Y-98918059D01*
X160091579Y-98795722D01*
X160088141Y-98636386D01*
X160098886Y-98460465D01*
X160122614Y-98288377D01*
X160155673Y-98148386D01*
X160265339Y-97873477D01*
X160411052Y-97644812D01*
X160591843Y-97463479D01*
X160806746Y-97330568D01*
X160923506Y-97283687D01*
X161027669Y-97252463D01*
X161089094Y-97245732D01*
X161107231Y-97266230D01*
X161107231Y-97266230D01*
G37*
X161107231Y-97266230D02*
X161081534Y-97316697D01*
X161011454Y-97399868D01*
X160896443Y-97518483D01*
X160871560Y-97543183D01*
X160710949Y-97713972D01*
X160579448Y-97883875D01*
X160471677Y-98064030D01*
X160382255Y-98265574D01*
X160305799Y-98499646D01*
X160236930Y-98777384D01*
X160207286Y-98918059D01*
X160186276Y-98977597D01*
X160161941Y-99000235D01*
X160134164Y-98974836D01*
X160110402Y-98918059D01*
X160091579Y-98795722D01*
X160088141Y-98636386D01*
X160098886Y-98460465D01*
X160122614Y-98288377D01*
X160155673Y-98148386D01*
X160265339Y-97873477D01*
X160411052Y-97644812D01*
X160591843Y-97463479D01*
X160806746Y-97330568D01*
X160923506Y-97283687D01*
X161027669Y-97252463D01*
X161089094Y-97245732D01*
X161107231Y-97266230D01*
G36*
X163914860Y-97287933D02*
X163882103Y-97356852D01*
X163810934Y-97455474D01*
X163726585Y-97554185D01*
X163511901Y-97806904D01*
X163333897Y-98052129D01*
X163180593Y-98308951D01*
X163040012Y-98596462D01*
X162969307Y-98761176D01*
X162919590Y-98875738D01*
X162884600Y-98940442D01*
X162859773Y-98961994D01*
X162841577Y-98948828D01*
X162828396Y-98905472D01*
X162813370Y-98825103D01*
X162806119Y-98774401D01*
X162810235Y-98603747D01*
X162858200Y-98410919D01*
X162943301Y-98205611D01*
X163058827Y-97997516D01*
X163198067Y-97796329D01*
X163354310Y-97611742D01*
X163520844Y-97453451D01*
X163690959Y-97331149D01*
X163857943Y-97254530D01*
X163858468Y-97254367D01*
X163907537Y-97252508D01*
X163914860Y-97287933D01*
X163914860Y-97287933D01*
G37*
X163914860Y-97287933D02*
X163882103Y-97356852D01*
X163810934Y-97455474D01*
X163726585Y-97554185D01*
X163511901Y-97806904D01*
X163333897Y-98052129D01*
X163180593Y-98308951D01*
X163040012Y-98596462D01*
X162969307Y-98761176D01*
X162919590Y-98875738D01*
X162884600Y-98940442D01*
X162859773Y-98961994D01*
X162841577Y-98948828D01*
X162828396Y-98905472D01*
X162813370Y-98825103D01*
X162806119Y-98774401D01*
X162810235Y-98603747D01*
X162858200Y-98410919D01*
X162943301Y-98205611D01*
X163058827Y-97997516D01*
X163198067Y-97796329D01*
X163354310Y-97611742D01*
X163520844Y-97453451D01*
X163690959Y-97331149D01*
X163857943Y-97254530D01*
X163858468Y-97254367D01*
X163907537Y-97252508D01*
X163914860Y-97287933D01*
G36*
X160819353Y-96979144D02*
X160796311Y-97049273D01*
X160737115Y-97130273D01*
X160656663Y-97201935D01*
X160653499Y-97204126D01*
X160556966Y-97302621D01*
X160521060Y-97384618D01*
X160487502Y-97463929D01*
X160427869Y-97566531D01*
X160354998Y-97670360D01*
X160354183Y-97671411D01*
X160250044Y-97815755D01*
X160181053Y-97940276D01*
X160137621Y-98064777D01*
X160117772Y-98159656D01*
X160084549Y-98264168D01*
X160015406Y-98345242D01*
X159991293Y-98364592D01*
X159899881Y-98461349D01*
X159820359Y-98596709D01*
X159811697Y-98616001D01*
X159754103Y-98729555D01*
X159702454Y-98794151D01*
X159660179Y-98806751D01*
X159633901Y-98773604D01*
X159626814Y-98719855D01*
X159627040Y-98629318D01*
X159632082Y-98551276D01*
X159662949Y-98394693D01*
X159721027Y-98274388D01*
X159801265Y-98199169D01*
X159843720Y-98182259D01*
X159890900Y-98158915D01*
X159918137Y-98107772D01*
X159933197Y-98029010D01*
X159972551Y-97867677D01*
X160049169Y-97721974D01*
X160145573Y-97601279D01*
X160214955Y-97503582D01*
X160268639Y-97391819D01*
X160279751Y-97356534D01*
X160318443Y-97218661D01*
X160354462Y-97127896D01*
X160394802Y-97072367D01*
X160446458Y-97040204D01*
X160471323Y-97031387D01*
X160560102Y-97008086D01*
X160656528Y-96988907D01*
X160743230Y-96976458D01*
X160802839Y-96973345D01*
X160819353Y-96979144D01*
X160819353Y-96979144D01*
G37*
X160819353Y-96979144D02*
X160796311Y-97049273D01*
X160737115Y-97130273D01*
X160656663Y-97201935D01*
X160653499Y-97204126D01*
X160556966Y-97302621D01*
X160521060Y-97384618D01*
X160487502Y-97463929D01*
X160427869Y-97566531D01*
X160354998Y-97670360D01*
X160354183Y-97671411D01*
X160250044Y-97815755D01*
X160181053Y-97940276D01*
X160137621Y-98064777D01*
X160117772Y-98159656D01*
X160084549Y-98264168D01*
X160015406Y-98345242D01*
X159991293Y-98364592D01*
X159899881Y-98461349D01*
X159820359Y-98596709D01*
X159811697Y-98616001D01*
X159754103Y-98729555D01*
X159702454Y-98794151D01*
X159660179Y-98806751D01*
X159633901Y-98773604D01*
X159626814Y-98719855D01*
X159627040Y-98629318D01*
X159632082Y-98551276D01*
X159662949Y-98394693D01*
X159721027Y-98274388D01*
X159801265Y-98199169D01*
X159843720Y-98182259D01*
X159890900Y-98158915D01*
X159918137Y-98107772D01*
X159933197Y-98029010D01*
X159972551Y-97867677D01*
X160049169Y-97721974D01*
X160145573Y-97601279D01*
X160214955Y-97503582D01*
X160268639Y-97391819D01*
X160279751Y-97356534D01*
X160318443Y-97218661D01*
X160354462Y-97127896D01*
X160394802Y-97072367D01*
X160446458Y-97040204D01*
X160471323Y-97031387D01*
X160560102Y-97008086D01*
X160656528Y-96988907D01*
X160743230Y-96976458D01*
X160802839Y-96973345D01*
X160819353Y-96979144D01*
G36*
X162882357Y-96658215D02*
X163086571Y-96664750D01*
X163248606Y-96678654D01*
X163377191Y-96701657D01*
X163481055Y-96735485D01*
X163568927Y-96781866D01*
X163649536Y-96842528D01*
X163674542Y-96864619D01*
X163792647Y-96972026D01*
X163666152Y-96954917D01*
X163307434Y-96909485D01*
X162996717Y-96877955D01*
X162723765Y-96860793D01*
X162478343Y-96858471D01*
X162250217Y-96871455D01*
X162029150Y-96900215D01*
X161804908Y-96945221D01*
X161567256Y-97006939D01*
X161391441Y-97059104D01*
X161276305Y-97093767D01*
X161205172Y-97111517D01*
X161165164Y-97113785D01*
X161143405Y-97102003D01*
X161133152Y-97087819D01*
X161141230Y-97048227D01*
X161193993Y-96990909D01*
X161282114Y-96923726D01*
X161396267Y-96854537D01*
X161432839Y-96835255D01*
X161561276Y-96777808D01*
X161700241Y-96733366D01*
X161859046Y-96700542D01*
X162047004Y-96677949D01*
X162273426Y-96664199D01*
X162547626Y-96657905D01*
X162627236Y-96657322D01*
X162882357Y-96658215D01*
X162882357Y-96658215D01*
G37*
X162882357Y-96658215D02*
X163086571Y-96664750D01*
X163248606Y-96678654D01*
X163377191Y-96701657D01*
X163481055Y-96735485D01*
X163568927Y-96781866D01*
X163649536Y-96842528D01*
X163674542Y-96864619D01*
X163792647Y-96972026D01*
X163666152Y-96954917D01*
X163307434Y-96909485D01*
X162996717Y-96877955D01*
X162723765Y-96860793D01*
X162478343Y-96858471D01*
X162250217Y-96871455D01*
X162029150Y-96900215D01*
X161804908Y-96945221D01*
X161567256Y-97006939D01*
X161391441Y-97059104D01*
X161276305Y-97093767D01*
X161205172Y-97111517D01*
X161165164Y-97113785D01*
X161143405Y-97102003D01*
X161133152Y-97087819D01*
X161141230Y-97048227D01*
X161193993Y-96990909D01*
X161282114Y-96923726D01*
X161396267Y-96854537D01*
X161432839Y-96835255D01*
X161561276Y-96777808D01*
X161700241Y-96733366D01*
X161859046Y-96700542D01*
X162047004Y-96677949D01*
X162273426Y-96664199D01*
X162547626Y-96657905D01*
X162627236Y-96657322D01*
X162882357Y-96658215D01*
G36*
X163953723Y-96084518D02*
X164150499Y-96139000D01*
X164255819Y-96188793D01*
X164305213Y-96232560D01*
X164301375Y-96275911D01*
X164247002Y-96324454D01*
X164241394Y-96328177D01*
X164173709Y-96359359D01*
X164102583Y-96353340D01*
X164072582Y-96343807D01*
X164008408Y-96325232D01*
X163939873Y-96315496D01*
X163857206Y-96315350D01*
X163750637Y-96325543D01*
X163610396Y-96346823D01*
X163426713Y-96379939D01*
X163309662Y-96402304D01*
X163033531Y-96449936D01*
X162771259Y-96484268D01*
X162542369Y-96502829D01*
X162502905Y-96504412D01*
X162361977Y-96511551D01*
X162238643Y-96522649D01*
X162147946Y-96536065D01*
X162108928Y-96547402D01*
X162045020Y-96565927D01*
X161948298Y-96577638D01*
X161886847Y-96579765D01*
X161803417Y-96583200D01*
X161733222Y-96598053D01*
X161658957Y-96631145D01*
X161563315Y-96689294D01*
X161496651Y-96733540D01*
X161367621Y-96815458D01*
X161266476Y-96866163D01*
X161175754Y-96893370D01*
X161115438Y-96901981D01*
X161024949Y-96907705D01*
X160981220Y-96900519D01*
X160972150Y-96877869D01*
X160973257Y-96871985D01*
X161002161Y-96827725D01*
X161067489Y-96758941D01*
X161157184Y-96676057D01*
X161259190Y-96589498D01*
X161361448Y-96509688D01*
X161451903Y-96447051D01*
X161490992Y-96424351D01*
X161592733Y-96383516D01*
X161716212Y-96350045D01*
X161774874Y-96339525D01*
X161901043Y-96315097D01*
X162030162Y-96279732D01*
X162079308Y-96262564D01*
X162175038Y-96230903D01*
X162252924Y-96224569D01*
X162347230Y-96241591D01*
X162365257Y-96246126D01*
X162458109Y-96264687D01*
X162547360Y-96267489D01*
X162656956Y-96254126D01*
X162733890Y-96239876D01*
X162875224Y-96214243D01*
X163023735Y-96190822D01*
X163135236Y-96176139D01*
X163272404Y-96156833D01*
X163422092Y-96129841D01*
X163493824Y-96114434D01*
X163738003Y-96076394D01*
X163953723Y-96084518D01*
X163953723Y-96084518D01*
G37*
X163953723Y-96084518D02*
X164150499Y-96139000D01*
X164255819Y-96188793D01*
X164305213Y-96232560D01*
X164301375Y-96275911D01*
X164247002Y-96324454D01*
X164241394Y-96328177D01*
X164173709Y-96359359D01*
X164102583Y-96353340D01*
X164072582Y-96343807D01*
X164008408Y-96325232D01*
X163939873Y-96315496D01*
X163857206Y-96315350D01*
X163750637Y-96325543D01*
X163610396Y-96346823D01*
X163426713Y-96379939D01*
X163309662Y-96402304D01*
X163033531Y-96449936D01*
X162771259Y-96484268D01*
X162542369Y-96502829D01*
X162502905Y-96504412D01*
X162361977Y-96511551D01*
X162238643Y-96522649D01*
X162147946Y-96536065D01*
X162108928Y-96547402D01*
X162045020Y-96565927D01*
X161948298Y-96577638D01*
X161886847Y-96579765D01*
X161803417Y-96583200D01*
X161733222Y-96598053D01*
X161658957Y-96631145D01*
X161563315Y-96689294D01*
X161496651Y-96733540D01*
X161367621Y-96815458D01*
X161266476Y-96866163D01*
X161175754Y-96893370D01*
X161115438Y-96901981D01*
X161024949Y-96907705D01*
X160981220Y-96900519D01*
X160972150Y-96877869D01*
X160973257Y-96871985D01*
X161002161Y-96827725D01*
X161067489Y-96758941D01*
X161157184Y-96676057D01*
X161259190Y-96589498D01*
X161361448Y-96509688D01*
X161451903Y-96447051D01*
X161490992Y-96424351D01*
X161592733Y-96383516D01*
X161716212Y-96350045D01*
X161774874Y-96339525D01*
X161901043Y-96315097D01*
X162030162Y-96279732D01*
X162079308Y-96262564D01*
X162175038Y-96230903D01*
X162252924Y-96224569D01*
X162347230Y-96241591D01*
X162365257Y-96246126D01*
X162458109Y-96264687D01*
X162547360Y-96267489D01*
X162656956Y-96254126D01*
X162733890Y-96239876D01*
X162875224Y-96214243D01*
X163023735Y-96190822D01*
X163135236Y-96176139D01*
X163272404Y-96156833D01*
X163422092Y-96129841D01*
X163493824Y-96114434D01*
X163738003Y-96076394D01*
X163953723Y-96084518D01*
M02*
